<svg width="164" height="31" viewBox="0 0 164 31" fill="none" xmlns="http://www.w3.org/2000/svg">
<path d="M17.2288 15.5557C17.2288 15.7933 17.1137 15.9086 16.8764 15.9086H1.70466C1.70466 17.925 2.44527 19.6607 3.91931 21.1082C5.40053 22.5557 7.1478 23.2759 9.16112 23.2759C12.2889 23.2759 14.518 21.8284 15.8626 18.9333L15.9632 18.6308L16.5672 18.9333L16.4666 19.2358C15.8266 20.7481 14.8631 21.922 13.5688 22.743C12.2746 23.564 10.8077 23.9817 9.16112 23.9817C6.91052 23.9817 4.98349 23.1679 3.38722 21.5331C1.79814 19.9055 1 17.9322 1 15.6061C1 13.388 1.80533 11.5011 3.42317 9.95274C5.03382 8.40437 6.95366 7.63379 9.16831 7.63379C11.383 7.63379 13.2812 8.41158 14.8631 9.95274C16.445 11.5011 17.2288 13.3664 17.2288 15.5557ZM16.5241 15.2028C16.5241 13.3015 15.7835 11.6812 14.3095 10.3416C12.8282 9.00212 11.1169 8.33956 9.16831 8.33956C7.18375 8.33956 5.44367 9.00932 3.94807 10.3416C2.45246 11.6812 1.70466 13.3015 1.70466 15.2028H16.5241Z" fill="#2F2F44" stroke="#2F2F44" stroke-width="0.2"/>
<path d="M31.2639 9.09644H28.8407V23.1326H28.136V9.09644H25.9717V8.39067H28.136V3.14062H28.8407V8.39067H31.2639V9.09644Z" fill="#2F2F44" stroke="#2F2F44" stroke-width="0.2"/>
<path d="M50.9942 23.132H50.2895V13.2873C50.2895 12.0054 49.8078 10.8891 48.8514 9.93126C47.8951 8.97344 46.759 8.49093 45.4504 8.49093C44.041 8.49093 42.8474 9.08146 41.8695 10.2553C41.5675 10.6226 41.2296 11.2132 40.8629 12.0198V23.1248H40.1582V0.208984H40.8629V10.3562C41.4309 9.6504 42.0061 9.11027 42.5742 8.74299C43.4155 8.20286 44.3718 7.88598 45.4504 7.78516C46.9316 7.78516 48.2259 8.32529 49.3332 9.39834C50.4405 10.4786 50.9942 11.7677 50.9942 13.2873V23.132Z" fill="#2F2F44" stroke="#2F2F44" stroke-width="0.2"/>
<path d="M76.068 15.555C76.068 15.7927 75.9529 15.9079 75.7157 15.9079H60.5439C60.5439 17.9244 61.2845 19.66 62.7585 21.1075C64.2398 22.555 65.987 23.2752 68.0003 23.2752C71.1282 23.2752 73.3572 21.8277 74.7018 18.9326L74.8025 18.6301L75.4065 18.9326L75.3058 19.2351C74.6659 20.7474 73.7023 21.9213 72.4081 22.7423C71.1138 23.5633 69.6469 23.981 68.0003 23.981C65.7497 23.981 63.8227 23.1672 62.2264 21.5324C60.6302 19.8976 59.832 17.9244 59.832 15.5982C59.832 13.3801 60.6374 11.4933 62.2552 9.94491C63.8659 8.39655 65.7857 7.62598 68.0003 7.62598C70.215 7.62598 72.1133 8.40376 73.6952 9.94491C75.277 11.5005 76.068 13.3657 76.068 15.555ZM75.3633 15.2021C75.3633 13.3009 74.6227 11.6805 73.1487 10.341C71.6675 9.00149 69.9561 8.33894 68.0075 8.33894C66.023 8.33894 64.2829 9.0087 62.7873 10.341C61.2917 11.6805 60.5439 13.3009 60.5439 15.2021H75.3633Z" fill="#2F2F44" stroke="#2F2F44" stroke-width="0.2"/>
<path d="M90.4062 8.28951L90.1042 8.84404L89.7519 8.69281C89.2485 8.49116 88.8459 8.39034 88.5439 8.39034C87.4365 8.39034 86.5809 8.96647 85.9697 10.1043C85.8043 10.4428 85.6318 11.0334 85.4664 11.8688V23.125H84.7617V8.39034H85.4664V9.70104C85.8043 9.0961 86.171 8.6424 86.5737 8.33992C87.1417 7.90062 87.8033 7.68457 88.5367 7.68457C88.8027 7.68457 89.0903 7.73498 89.3923 7.83581C89.4571 7.87181 89.68 7.97264 90.0467 8.13828L90.4062 8.28951Z" fill="#2F2F44" stroke="#2F2F44" stroke-width="0.2"/>
<path d="M113.157 21.5116C113.157 23.8666 112.352 25.9047 110.734 27.6187C109.116 29.3327 107.124 30.1969 104.737 30.1969C103.026 30.1969 101.494 29.8296 100.149 29.0878C98.5675 28.2092 97.5249 26.9993 97.0216 25.451L96.9209 25.1485L97.5752 24.846L97.6759 25.1485C98.3446 26.5312 99.3153 27.5971 100.588 28.3533C101.861 29.1094 103.248 29.4911 104.758 29.4911C106.966 29.4911 108.799 28.7061 110.259 27.1434C111.719 25.5806 112.445 23.701 112.445 21.5116V19.7976C111.87 21.1083 110.957 22.1886 109.698 23.0312C108.44 23.8738 106.916 24.2915 105.14 24.2915C102.587 24.2915 100.552 23.4345 99.0421 21.7133C97.6615 20.1289 96.9784 18.2493 96.9784 16.0599C96.9784 13.8058 97.6327 11.9406 98.9414 10.457C100.423 8.7718 102.45 7.9292 105.039 7.9292C106.822 7.9292 108.382 8.3685 109.727 9.23991C110.906 10.0177 111.812 11.0908 112.452 12.4735V8.38291H113.157V21.5116ZM112.402 17.3778V14.85C112.136 13.064 111.395 11.6165 110.194 10.5074C108.857 9.26152 107.146 8.64217 105.068 8.64217C102.724 8.64217 100.904 9.37674 99.6173 10.8387C98.3302 12.3006 97.6831 14.0435 97.6831 16.0671C97.6831 18.0908 98.3015 19.8048 99.5454 21.2164C100.955 22.8007 102.824 23.5857 105.168 23.5857C107.246 23.5857 108.936 22.9664 110.245 21.7205C111.417 20.6042 112.136 19.1567 112.402 17.3778Z" fill="#2F2F44" stroke="#2F2F44" stroke-width="0.2"/>
<path d="M130.211 7.27344C132.764 7.27344 134.784 8.09443 136.258 9.73642C137.603 11.2488 138.271 13.0924 138.271 15.2745C138.271 17.5215 137.581 19.4227 136.208 20.9639C134.698 22.6779 132.627 23.5277 130.01 23.5277C127.457 23.5277 125.437 22.7067 123.963 21.0647C122.618 19.5524 121.949 17.7087 121.949 15.5266C121.949 13.2797 122.64 11.3856 124.013 9.83725C125.53 8.13044 127.594 7.27344 130.211 7.27344ZM130.218 7.98641C127.853 7.98641 125.954 8.7786 124.531 10.3486C123.279 11.7601 122.654 13.4885 122.654 15.5338C122.654 17.5143 123.265 19.1923 124.48 20.5678C125.832 22.0802 127.68 22.8291 130.01 22.8291C132.375 22.8291 134.274 22.0442 135.697 20.467C136.948 19.0554 137.574 17.3342 137.574 15.2817C137.574 13.3013 136.963 11.6233 135.748 10.2477C134.396 8.73539 132.548 7.98641 130.218 7.98641Z" fill="#2F2F44" stroke="#2F2F44" stroke-width="0.2"/>
<path d="M162.999 23.1319H162.295V20.0496C161.691 21.3315 160.77 22.3685 159.548 23.1823C158.318 23.9889 156.837 24.3922 155.09 24.3922C152.501 24.3922 150.438 23.5352 148.892 21.814C147.511 20.2657 146.828 18.3644 146.828 16.1103C146.828 13.921 147.482 12.0917 148.791 10.6082C150.272 8.92301 152.3 8.08042 154.889 8.08042C156.701 8.08042 158.225 8.48371 159.447 9.2903C160.677 10.0969 161.626 11.1915 162.295 12.5743V0.208984H162.999V23.1319ZM162.345 16.5136C162.345 13.885 161.518 11.8829 159.864 10.5074C158.484 9.36231 156.816 8.79338 154.86 8.79338C152.53 8.79338 150.697 9.54956 149.345 11.0619C148.13 12.4446 147.526 14.1442 147.526 16.1607C147.526 18.1772 148.151 19.8984 149.395 21.3099C150.812 22.8943 152.703 23.6792 155.061 23.6792C157.254 23.6792 159.016 22.9951 160.346 21.634C161.676 20.2801 162.345 18.5733 162.345 16.5136Z" fill="#2F2F44" stroke="#2F2F44" stroke-width="0.2"/>
</svg>
