<svg width="70" height="70" viewBox="0 0 70 70" fill="none" xmlns="http://www.w3.org/2000/svg">
<circle cx="35" cy="35" r="35" fill="#F3F4F8"/>
<path d="M19.733 47.5497V26.5291L15.8258 30.7938L14 28.8673L20.0937 22.3809H22.7611V47.5497H19.733Z" fill="#7B7B8F"/>
<path d="M27.5244 41.1718C27.5244 37.816 30.297 35.5088 33.325 34.5689C30.5149 33.7377 27.9226 31.85 27.9226 28.533C27.9076 24.0042 32.183 22 36.2329 22C40.2828 22 44.5882 24.0042 44.5882 28.533C44.5882 31.85 41.9659 33.7377 39.1557 34.5689C42.1612 35.5088 44.9564 37.816 44.9564 41.1718C44.9564 45.4365 41.0116 48 36.2329 48C31.4541 48 27.5244 45.4754 27.5244 41.1718ZM41.9058 40.83C41.9058 37.5518 37.7431 36.1691 36.2479 35.9671C34.7452 36.1536 30.5525 37.5208 30.5525 40.83C30.5525 43.5488 33.2199 45.2112 36.2479 45.2112C39.276 45.2112 41.8907 43.5488 41.8907 40.83H41.9058ZM41.5376 28.9447C41.5376 26.3424 39.1708 24.7965 36.278 24.7965C33.3852 24.7965 31.0183 26.3502 31.0183 28.9447C31.0183 32.0054 34.8579 33.023 36.3155 33.2871C37.7281 33.023 41.5226 32.0054 41.5226 28.9447H41.5376Z" fill="#7B7B8F"/>
<path d="M54.5752 36.5109V41.7H52.0206V36.5109H47.625V34.1028H52.0356V29.1001H54.5752V34.1028H58.9858V36.5109H54.5752Z" fill="#7B7B8F"/>
</svg>
