<svg width="12" height="12" viewBox="0 0 12 12" fill="none" xmlns="http://www.w3.org/2000/svg">
<path d="M7.57964 0H0.62998C0.281991 0 0 0.287297 0 0.641834V9.6531L3.2699 6.43362H7.57964C7.92763 6.43362 8.20962 6.14632 8.20962 5.79179V0.641834C8.20962 0.640306 8.20962 0.638395 8.20962 0.636867C8.20962 0.285387 7.92988 0 7.58451 0C7.58264 0 7.58114 0 7.57926 0H7.57964Z" fill="#2F2F44"/>
<path d="M11.3697 3.21436H9.49961V5.79201C9.49961 6.85829 8.65139 7.72247 7.60479 7.72247H3.79004V11.4921C3.79004 11.6694 3.93103 11.8126 4.10503 11.8126C4.18828 11.8126 4.26402 11.7798 4.32027 11.7259L5.41524 10.707C5.52661 10.6004 5.67736 10.5347 5.84273 10.5347C6.00809 10.5347 6.15884 10.6004 6.27059 10.7074L7.4653 11.8329C7.57892 11.9368 7.72967 12.0002 7.89541 12.0002C8.06116 12.0002 8.2119 11.9368 8.3259 11.8325L9.49999 10.6971C9.61136 10.5905 9.7621 10.5248 9.92747 10.5248C10.0928 10.5248 10.2436 10.5905 10.3553 10.6974L11.4499 11.716C11.508 11.7821 11.5917 11.8233 11.685 11.8233C11.859 11.8233 12 11.6797 12 11.5024C12 11.4986 12 11.4948 12 11.4913V3.85084C11.9944 3.49974 11.7143 3.21741 11.3697 3.21436Z" fill="#2F2F44"/>
</svg>
