<svg width="14" height="14" viewBox="0 0 14 14" fill="none" xmlns="http://www.w3.org/2000/svg">
<path d="M7.00022 3.34143L7.67697 4.65844C8.058 5.39422 8.72993 5.92193 9.52698 6.0765L9.54317 6.07924L10.9487 6.34127L9.96313 7.42048C9.5038 7.91573 9.22032 8.59252 9.22032 9.33791C9.22032 9.47235 9.22951 9.60451 9.24745 9.73392L9.2457 9.71929L9.43818 11.195L8.2251 10.5854C7.86726 10.4007 7.44555 10.2923 7.00022 10.2923C6.55489 10.2923 6.13318 10.4002 5.75871 10.5927L5.77533 10.5849L4.56226 11.1945L4.75474 9.71883C4.77093 9.60451 4.78011 9.47189 4.78011 9.33745C4.78011 8.5916 4.49708 7.91527 4.03687 7.41911L4.03775 7.42002L3.05215 6.31017L4.45771 6.04815C5.27138 5.89084 5.94288 5.36312 6.31735 4.64197L6.32435 4.62734L7.00109 3.34098L7.00022 3.34143ZM7.00022 0C6.99978 0 6.99934 0 6.99891 0C6.71018 0 6.45952 0.168284 6.33134 0.416593L6.32916 0.420709L4.66681 3.68898C4.55614 3.89979 4.36365 4.05115 4.13486 4.09688L4.13005 4.0978L0.630378 4.7563C0.27035 4.8226 0 5.14728 0 5.53735C0 5.74999 0.080055 5.94297 0.210418 6.08564L0.20998 6.08519L2.66544 8.76172C2.79843 8.90165 2.88023 9.09417 2.88023 9.30727C2.88023 9.35391 2.87629 9.39918 2.86886 9.44354L2.86973 9.43897L2.39159 13.0973C2.38678 13.1302 2.38415 13.1682 2.38415 13.2071C2.38415 13.6447 2.72362 13.9995 3.14227 13.9995C3.14271 13.9995 3.14314 13.9995 3.14402 13.9995C3.15058 14 3.15889 14 3.16677 14C3.28838 14 3.40343 13.9684 3.50361 13.9122L3.49967 13.914L6.62007 12.3409C6.73774 12.2797 6.87598 12.2435 7.02253 12.2435C7.16908 12.2435 7.30732 12.2797 7.43024 12.3432L7.42499 12.3409L10.499 13.914C10.5939 13.968 10.7072 13.9995 10.8271 13.9995C10.8284 13.9995 10.8302 13.9995 10.8319 13.9995H10.8315C10.8389 14 10.8477 14 10.8564 14C11.2751 14 11.6145 13.6451 11.6145 13.2075C11.6145 13.1686 11.6119 13.1302 11.6067 13.0932L11.6071 13.0973L11.129 9.43897C11.1237 9.40421 11.1206 9.36397 11.1206 9.32327C11.1206 9.112 11.2016 8.91994 11.3333 8.78047L13.7887 6.10394C13.9195 5.96172 14 5.76828 14 5.55519C14 5.16649 13.7323 4.84318 13.3792 4.7755L13.3744 4.77459L9.87476 4.11609C9.63591 4.06716 9.44037 3.90848 9.3345 3.69401L9.33231 3.68943L7.66997 0.421166C7.54004 0.168741 7.28894 0.000457286 7.00022 0.000457286C6.99978 0.000457286 6.99934 0.000457286 6.99891 0.000457286L7.00022 0Z" fill="#2F2F44"/>
</svg>
