<svg width="11" height="12" viewBox="0 0 11 12" fill="none" xmlns="http://www.w3.org/2000/svg">
<path d="M11 7.60105C11 6.29361 10.5724 4.79346 9.50904 3.96263C9.16667 5.06749 8.55571 5.06749 8.55571 5.06749C8.55571 5.06749 8.25 0 4.88904 0C4.88904 0 4.88904 4.33776 3.05571 4.33776C3.05571 4.33776 2.98833 2.61489 2.07167 2.61489C1.86404 3.77525 0 5.321 0 7.60143C0.00320833 9.69639 1.70912 11.4603 4.0315 11.9924L4.07 12C3.43429 11.4679 1.72333 9.62835 4.27763 7.09442C4.27763 7.09442 4.27763 9.12134 6.11096 9.12134C6.78608 9.12134 7.33333 8.66753 7.33333 8.10769C7.33333 8.10769 9.02596 10.4641 6.95429 11.9947C9.30325 11.4478 10.9973 9.68878 11 7.60143V7.60105Z" fill="white"/>
</svg>
