<svg width="16" height="17" viewBox="0 0 16 17" fill="none" xmlns="http://www.w3.org/2000/svg">
<path fill-rule="evenodd" clip-rule="evenodd" d="M14.1461 5.71765L13.6793 4.90758C13.2843 4.22214 12.4091 3.98568 11.7227 4.37898V4.37898C11.396 4.57145 11.0061 4.62605 10.6391 4.53075C10.2721 4.43545 9.95802 4.19808 9.76621 3.87097C9.64281 3.66305 9.5765 3.42623 9.57399 3.18447V3.18447C9.58512 2.79686 9.43888 2.42124 9.16859 2.14319C8.8983 1.86514 8.52698 1.70834 8.1392 1.7085H7.1987C6.8188 1.70849 6.45456 1.85987 6.18658 2.12915C5.91859 2.39842 5.76896 2.76338 5.77078 3.14328V3.14328C5.75952 3.92763 5.12044 4.55755 4.336 4.55747C4.09424 4.55496 3.85742 4.48865 3.6495 4.36525V4.36525C2.96312 3.97195 2.08791 4.20841 1.69298 4.89385L1.19184 5.71765C0.797384 6.40223 1.03063 7.27689 1.71358 7.67417V7.67417C2.1575 7.93047 2.43098 8.40413 2.43098 8.91673C2.43098 9.42933 2.1575 9.903 1.71358 10.1593V10.1593C1.03149 10.5539 0.797997 11.4264 1.19184 12.109V12.109L1.66552 12.9259C1.85056 13.2598 2.16103 13.5062 2.52822 13.6105C2.89541 13.7149 3.28906 13.6686 3.62204 13.4819V13.4819C3.94939 13.2909 4.33947 13.2386 4.70558 13.3366C5.07169 13.4346 5.3835 13.6747 5.5717 14.0037C5.6951 14.2116 5.76141 14.4484 5.76392 14.6902V14.6902C5.76392 15.4826 6.40629 16.125 7.1987 16.125H8.1392C8.92894 16.125 9.57021 15.4868 9.57399 14.6971V14.6971C9.57215 14.316 9.72272 13.95 9.9922 13.6805C10.2617 13.411 10.6277 13.2604 11.0088 13.2623C11.25 13.2687 11.4858 13.3348 11.6953 13.4545V13.4545C12.3799 13.8489 13.2545 13.6157 13.6518 12.9328V12.9328L14.1461 12.109C14.3374 11.7806 14.3899 11.3894 14.292 11.0222C14.194 10.655 13.9538 10.342 13.6243 10.1524V10.1524C13.2949 9.96291 13.0546 9.64987 12.9567 9.28264C12.8588 8.91542 12.9113 8.5243 13.1026 8.19591C13.227 7.97869 13.4071 7.79859 13.6243 7.67417V7.67417C14.3032 7.27711 14.5359 6.40756 14.1461 5.72451V5.72451V5.71765Z" stroke="url(#paint0_linear)" stroke-width="1.5" stroke-linecap="round" stroke-linejoin="round"/>
<circle cx="7.67243" cy="8.91657" r="1.97712" stroke="url(#paint1_linear)" stroke-width="1.5" stroke-linecap="round" stroke-linejoin="round"/>
<defs>
<linearGradient id="paint0_linear" x1="13.8551" y1="16.8458" x2="-0.758424" y2="14.8974" gradientUnits="userSpaceOnUse">
<stop stop-color="#D200FF"/>
<stop offset="1" stop-color="#00D1FF"/>
</linearGradient>
<linearGradient id="paint1_linear" x1="9.50576" y1="11.0914" x2="5.18675" y2="10.4691" gradientUnits="userSpaceOnUse">
<stop stop-color="#D200FF"/>
<stop offset="1" stop-color="#00D1FF"/>
</linearGradient>
</defs>
</svg>
