<svg width="14" height="11" viewBox="0 0 14 11" fill="none" xmlns="http://www.w3.org/2000/svg">
<path d="M7.40229 8.2313H6.60829C4.95942 7.89064 3.04852 7.95694 1 8.2313V8.79372L1.794 8.92404C1.794 8.92404 1.794 11 4.19718 11C5.81694 11 6.34363 9.74482 6.51566 8.92404H7.48434C7.65637 9.74482 8.18306 11 9.80282 11C12.206 11 12.206 8.92404 12.206 8.92404L13 8.79372V8.2313C10.9912 7.95237 9.09352 7.8975 7.40229 8.2313Z" fill="#7B7B8F"/>
<path d="M13.4506 5.00059H0.538291C0.241119 5.00059 0 5.31913 0 5.71172C0 6.10432 0.241119 6.42286 0.538291 6.42286C2.47925 6.79018 4.72094 7 7 7C9.27906 7 11.5203 6.79018 13.7148 6.38407L13.4617 6.42227C13.7589 6.42227 14 6.10373 14 5.71114C14 5.31854 13.7589 5 13.4617 5L13.4506 5.00059Z" fill="#7B7B8F"/>
<path d="M11.0759 1.04C10.8823 0.434824 10.2788 0 9.56427 0C9.56376 0 9.56376 0 9.56324 0H4.43676C4.43624 0 4.43624 0 4.43573 0C3.72122 0 3.11771 0.434824 2.92669 1.02965L2.92411 1.04L2 4H12L11.0759 1.04Z" fill="#7B7B8F"/>
</svg>
