<svg width="12" height="12" viewBox="0 0 12 12" fill="none" xmlns="http://www.w3.org/2000/svg">
<path d="M6.9043 9.60524C8.31346 9.60207 9.45526 8.52955 9.45863 7.20541V7.20502H6.9043L7.1346 4.81548C7.10008 4.81311 7.06008 4.81152 7.01966 4.81152C6.97925 4.81152 6.93883 4.81311 6.89925 4.81588L6.90472 4.81548C5.7785 4.82221 4.82573 5.51493 4.49607 6.47075L4.49102 6.48776H0V7.78539H4.4346C4.71837 8.83734 5.71576 9.60326 6.9043 9.60524H6.90472H6.9043Z" fill="#7B7B8F"/>
<path d="M5.44531 0H8.36424V1.37161H5.44531V0Z" fill="#7B7B8F"/>
<path d="M10.7166 4.01468L11.4689 3.19693L10.3461 2.29492L9.59369 3.12849C8.8308 2.67076 7.90035 2.39857 6.90211 2.39857C5.45254 2.39857 4.1457 2.97222 3.2245 3.89085L3.22198 3.89322H1.38086V5.19085H4.80501V4.4103C5.38518 4.00676 6.11438 3.76346 6.90422 3.76148H6.90464C8.83375 3.86513 10.3566 5.36057 10.3566 7.19031C10.3566 9.02004 8.83375 10.5155 6.91432 10.6187L6.90464 10.6191C6.9038 10.6191 6.90253 10.6191 6.90127 10.6191C6.11438 10.6191 5.38686 10.3818 4.79449 9.97942L4.80501 9.98614V9.08413H1.38086V10.3818H3.06494C4.0055 11.3763 5.37044 12.0002 6.89074 12.0002C9.71284 12.0002 12.0007 9.85045 12.0007 7.19862C12.0007 5.97497 11.5135 4.85814 10.7115 4.01032L10.7161 4.01507L10.7166 4.01468Z" fill="#7B7B8F"/>
</svg>
