<svg width="11" height="10" viewBox="0 0 11 10" fill="none" xmlns="http://www.w3.org/2000/svg">
<path d="M5.97189 0.000343116C3.38796 0.0150964 1.26367 1.95293 0.97277 4.44624L0.9707 4.46957H0L1.70226 6.87127L3.40935 4.46957H2.51216C2.78373 2.79489 4.22684 1.5316 5.96672 1.5316C7.89776 1.5316 9.46338 3.08825 9.46338 5.00823C9.46338 6.92822 7.89776 8.48487 5.96672 8.48487C5.0885 8.48487 4.28619 8.16304 3.67196 7.63158L3.6761 7.63501L2.67779 8.77856C3.55498 9.5375 4.70857 10 5.9712 10C8.74872 10 11 7.76127 11 5C11 2.23873 8.74907 0.0003431 5.97189 0V0.000343116Z" fill="#7B7B8F"/>
<path d="M5 3V5.28264L6.89163 7L8 5.99374L6.56616 4.69199V3.00032H5V3Z" fill="#7B7B8F"/>
</svg>
