<svg width="12" height="12" viewBox="0 0 12 12" fill="none" xmlns="http://www.w3.org/2000/svg">
<path d="M11.4998 9.19385L10.3531 9.19368C10.4772 9.02712 10.5507 8.82084 10.5516 8.59806H10.5516V8.59602V8.59602V8.59602V8.59601V8.59601V8.596V8.596V8.59599V8.59599V8.59599V8.59598V8.59598V8.59597V8.59597V8.59596V8.59596V8.59596V8.59595V8.59595V8.59594V8.59594V8.59593V8.59593V8.59593V8.59592V8.59592V8.59591V8.59591V8.5959V8.5959V8.5959V8.59589V8.59589V8.59588V8.59588V8.59588V8.59587V8.59587V8.59586V8.59586V8.59585V8.59585V8.59585V8.59584V8.59584V8.59583V8.59583V8.59583V8.59582V8.59582V8.59581V8.59581V8.59581V8.5958V8.5958V8.59579V8.59579V8.59579V8.59578V8.59578V8.59577V8.59577V8.59577V8.59576V8.59576V8.59575V8.59575V8.59575V8.59574V8.59574V8.59574V8.59573V8.59573V8.59572V8.59572V8.59572V8.59571V8.59571V8.5957V8.5957V8.5957V8.59569V8.59569V8.59569V8.59568V8.59568V8.59567V8.59567V8.59567V8.59566V8.59566V8.59565V8.59565V8.59565V8.59564V8.59564V8.59564V8.59563V8.59563V8.59562V8.59562V8.59562V8.59561V8.59561V8.59561V8.5956V8.5956V8.5956V8.59559V8.59559V8.59558V8.59558V8.59558V8.59557V8.59557V8.59557V8.59556V8.59556V8.59555V8.59555V8.59555V8.59554V8.59554V8.59554V8.59553V8.59553V8.59553V8.59552V8.59552V8.59552V8.59551V8.59551V8.5955V8.5955V8.5955V8.59549V8.59549V8.59549V8.59548V8.59548V8.59548V8.59547V8.59547V8.59547V8.59546V8.59546V8.59546V8.59545V8.59545V8.59544V8.59544V8.59544V8.59543V8.59543V8.59543V8.59542V8.59542V8.59542V8.59541V8.59541V8.59541V8.5954V8.5954V8.5954V8.59539V8.59539V8.59539V8.59538V8.59538V8.59538V8.59537V8.59537V8.59536V8.59536V8.59536V8.59535V8.59535V8.59535V8.59534V8.59534V8.59534V8.59533V8.59533V8.59533V8.59532V8.59532V8.59532V8.59531V8.59531V8.59531V8.5953V8.5953V8.5953V8.59529V8.59529V8.59529V8.59528V8.59528V8.59528V8.59527V8.59527V8.59527V8.59526V8.59526V8.59526V8.59525V8.59525V8.59525V8.59524V8.59524V8.59524V8.59523V8.59523V8.59523V8.59522V8.59522V8.59522V8.59521V8.59521V8.59521V8.5952V8.5952V8.5952V8.59519V8.59519V8.59519V8.59518V8.59518V8.59518V8.59517V8.59517V8.59517V8.59516V8.59516V8.59516V8.59515V8.59515V8.59515V8.59514V8.59514V8.59514V8.59513V8.59513V8.59513V8.59512V8.59512V8.59512V8.59511V8.59511V8.59511V8.5951V8.5951V8.5951V8.59509V8.59509V8.59509V8.59508V8.59508V8.59508V8.59507V8.59507V8.59507V8.59506V8.59506V8.59506V8.59505V8.59505V8.59505V8.59504V8.59504V8.59504V8.59503V8.59503V8.59503V8.59502V8.59502V8.59502V8.59501V8.59501V8.59501V8.595V8.595V8.595V8.59499V8.59499V8.59499V8.59498V8.59498V8.59498V8.59497V8.59497V8.59497V8.59496V8.59496V8.59496V8.59495V8.59495V8.59495V8.59494V8.59494V8.59494V8.59493V8.59493V8.59493V8.59492V8.59492V8.59492V8.59491V8.59491V8.59491V8.5949V8.5949V8.5949V8.59489V8.59489V8.59489V8.59488V8.59488V8.59488V8.59487V8.59487V8.59487V8.59486V8.59486V8.59486V8.59485V8.59485V8.59485V8.59484V8.59484V8.59484V8.59483V8.59483V8.59483V8.59482V8.59482V8.59482V8.59481V8.59481V8.59481V8.5948V8.5948V8.5948V8.59479V8.59479V8.59478V8.59478V8.59478V8.59477V8.59477V8.59477V8.59476V8.59476V8.59476V8.59475V8.59475V8.59475V8.59474V8.59474V8.59474V8.59473V8.59473V8.59473V8.59472V8.59472V8.59472V8.59471V8.59471V8.5947V8.5947V8.5947V8.59469V8.59469V8.59469V8.59468V8.59468V8.59468V8.59467V8.59467V8.59467V8.59466V8.59466V8.59466V8.59465V8.59465V8.59464V8.59464V8.59464V8.59463V8.59463V8.59463V8.59462V8.59462V8.59462V8.59461V8.59461V8.5946V8.5946V8.5946V8.59459V8.59459V8.59459V8.59458V8.59458V8.59458V8.59457V8.59457V8.59456V8.59456V8.59456V8.59455V8.59455V8.59455V8.59454V8.59454V8.59453V8.59453V8.59453V8.59452V8.59452V8.59452V8.59451V8.59451V8.5945V8.5945V8.5945V8.59449V8.59449V8.59449V8.59448V8.59448V8.59447V8.59447V8.59447V8.59446V8.59446V8.59446V8.59445V8.59445V8.59444V8.59444V8.59444V8.59443V8.59443V8.59442V8.59442V8.59442V8.59441V8.59441V8.5944V8.5944V8.5944V8.59439V8.59439V8.59438V8.59438V8.59438V8.59437V8.59437V8.59436V8.59436V8.59436V8.59435V8.59435V8.59434V8.59434V8.59434V8.59433V8.59433V8.59432V8.59432V8.59432V8.59431V8.59431V8.5943V8.5943V8.5943V8.59429V8.59429V8.59428V8.59428V8.59427V8.59427V8.59427V8.59426V8.59426V8.59425V8.59425V8.59425V8.59424V8.59424V8.59423V8.59423V8.59422V8.59422V8.59422V8.59421V8.59421V8.5942V8.5942V8.59419V8.59419V8.59419V8.59418V8.59418V8.59417V8.59417V8.59416V8.59416V8.59416V8.59415V8.59415V8.59414C10.5516 8.37055 10.4784 8.16347 10.3543 7.99625H11.4998V9.19385ZM9.46847 9.64578L9.46596 9.59339C9.4668 9.59346 9.46763 9.59353 9.46847 9.5936L9.46847 9.64578Z" fill="#6969FF" stroke="#6969FF"/>
<mask id="path-2-inside-1" fill="white">
<path d="M1.95639 3.77783C1.77301 3.77896 1.62451 3.92849 1.62451 4.11304V4.14882C1.62451 4.33299 1.77301 4.48214 1.95639 4.48214H3.25201C3.10951 4.27914 2.98351 4.04713 2.88526 3.80081L2.87701 3.77783H1.95639Z"/>
</mask>
<path d="M1.95639 3.77783C1.77301 3.77896 1.62451 3.92849 1.62451 4.11304V4.14882C1.62451 4.33299 1.77301 4.48214 1.95639 4.48214H3.25201C3.10951 4.27914 2.98351 4.04713 2.88526 3.80081L2.87701 3.77783H1.95639Z" fill="#6969FF"/>
<path d="M1.95639 3.77783V2.77781L1.95023 2.77785L1.95639 3.77783ZM3.25201 4.48214V5.48214H5.17573L4.0705 3.90761L3.25201 4.48214ZM2.88526 3.80081L1.9441 4.13877L1.94998 4.15514L1.95643 4.17129L2.88526 3.80081ZM2.87701 3.77783L3.81817 3.43987L3.58044 2.77783H2.87701V3.77783ZM1.95023 2.77785C1.21429 2.78239 0.624512 3.3813 0.624512 4.11304H2.62451C2.62451 4.47567 2.33173 4.77554 1.96255 4.77781L1.95023 2.77785ZM0.624512 4.11304V4.14882H2.62451V4.11304H0.624512ZM0.624512 4.14882C0.624512 4.88117 1.21663 5.48214 1.95639 5.48214V3.48214C2.3294 3.48214 2.62451 3.78482 2.62451 4.14882H0.624512ZM1.95639 5.48214H3.25201V3.48214H1.95639V5.48214ZM4.0705 3.90761C3.97337 3.76924 3.88412 3.60587 3.8141 3.43032L1.95643 4.17129C2.0829 4.48838 2.24566 4.78903 2.43353 5.05667L4.0705 3.90761ZM3.82642 3.46285L3.81817 3.43987L1.93585 4.11579L1.9441 4.13877L3.82642 3.46285ZM2.87701 2.77783H1.95639V4.77783H2.87701V2.77783Z" fill="#6969FF" mask="url(#path-2-inside-1)"/>
<mask id="path-4-inside-2" fill="white">
<path d="M9.31523 3.77783C9.20873 4.04713 9.08273 4.27914 8.93311 4.49306L8.94023 4.48214H10.8752V3.77783H9.31523Z"/>
</mask>
<path d="M9.31523 3.77783C9.20873 4.04713 9.08273 4.27914 8.93311 4.49306L8.94023 4.48214H10.8752V3.77783H9.31523Z" fill="#6969FF"/>
<path d="M9.31523 3.77783V2.77783H8.63535L8.38531 3.41007L9.31523 3.77783ZM8.93311 4.49306L8.09556 3.94669L9.75256 5.0662L8.93311 4.49306ZM8.94023 4.48214V3.48214H8.39861L8.10269 3.93577L8.94023 4.48214ZM10.8752 4.48214V5.48214H11.8752V4.48214H10.8752ZM10.8752 3.77783H11.8752V2.77783H10.8752V3.77783ZM8.38531 3.41007C8.30695 3.60822 8.21772 3.77112 8.11365 3.91993L9.75256 5.0662C9.94774 4.78715 10.1105 4.48604 10.2452 4.14559L8.38531 3.41007ZM9.77065 5.03944L9.77777 5.02852L8.10269 3.93577L8.09556 3.94669L9.77065 5.03944ZM8.94023 5.48214H10.8752V3.48214H8.94023V5.48214ZM11.8752 4.48214V3.77783H9.87523V4.48214H11.8752ZM10.8752 2.77783H9.31523V4.77783H10.8752V2.77783Z" fill="#6969FF" mask="url(#path-4-inside-2)"/>
<mask id="path-6-inside-3" fill="white">
<path d="M10.3593 3.07207V2.52783H9.56241C9.55979 2.72218 9.54141 2.91012 9.50879 3.09279L9.51179 3.07207H10.3593Z"/>
</mask>
<path d="M10.3593 3.07207V2.52783H9.56241C9.55979 2.72218 9.54141 2.91012 9.50879 3.09279L9.51179 3.07207H10.3593Z" fill="#6969FF"/>
<path d="M10.3593 3.07207V4.07207H11.3593V3.07207H10.3593ZM10.3593 2.52783H11.3593V1.52783H10.3593V2.52783ZM9.56241 2.52783V1.52783H8.57583L8.56251 2.51433L9.56241 2.52783ZM9.50879 3.09279L8.51911 2.94947L10.4932 3.26861L9.50879 3.09279ZM9.51179 3.07207V2.07207H8.64617L8.52211 2.92876L9.51179 3.07207ZM11.3593 3.07207V2.52783H9.35929V3.07207H11.3593ZM10.3593 1.52783H9.56241V3.52783H10.3593V1.52783ZM8.56251 2.51433C8.56062 2.65394 8.54747 2.7876 8.52437 2.91697L10.4932 3.26861C10.5354 3.03263 10.559 2.79041 10.5623 2.54134L8.56251 2.51433ZM10.4985 3.2361L10.5015 3.21539L8.52211 2.92876L8.51911 2.94947L10.4985 3.2361ZM9.51179 4.07207H10.3593V2.07207H9.51179V4.07207Z" fill="#6969FF" mask="url(#path-6-inside-3)"/>
<path d="M11.1681 6.28936H9.48042C9.45713 6.28861 9.4337 6.28823 9.41064 6.28823C8.13944 6.28823 7.11251 7.32278 7.11251 8.5942C7.11251 9.86563 8.13944 10.9002 9.41064 10.9002C9.43272 10.9002 9.45601 10.8998 9.47852 10.899H11.1681V10.9998C11.1681 11.2778 10.9441 11.4998 10.6725 11.4998L1.15027 11.4998C1.15012 11.4998 1.14997 11.4998 1.14982 11.4998C0.793134 11.4989 0.500844 11.2084 0.5 10.8449V4.63112C0.696077 5.21366 1.2266 5.64279 1.86644 5.68744L1.88383 5.68866H1.90125H10.6737C10.945 5.68943 11.1681 5.91091 11.1681 6.18863V6.18864V6.18864V6.18865V6.18866V6.18867V6.18868V6.18869V6.1887V6.1887V6.18871V6.18872V6.18873V6.18874V6.18875V6.18876V6.18876V6.18877V6.18878V6.18879V6.1888V6.18881V6.18881V6.18882V6.18883V6.18884V6.18885V6.18885V6.18886V6.18887V6.18888V6.18889V6.18889V6.1889V6.18891V6.18892V6.18892V6.18893V6.18894V6.18895V6.18896V6.18896V6.18897V6.18898V6.18899V6.18899V6.189V6.18901V6.18902V6.18902V6.18903V6.18904V6.18905V6.18905V6.18906V6.18907V6.18908V6.18909V6.1891V6.18911V6.18912V6.18913V6.18914V6.18915V6.18917V6.18918V6.18919V6.1892V6.18921V6.18922V6.18923V6.18924V6.18925V6.18926V6.18927V6.18928V6.18929V6.1893V6.18931V6.18932V6.18933V6.18934V6.18935V6.18936V6.18937V6.18938V6.18939V6.1894V6.18941V6.18942V6.18943V6.18944V6.18945V6.18946V6.18947V6.18948V6.18949V6.1895V6.18951V6.18952V6.18953V6.18954V6.18955V6.18956V6.18957V6.18958V6.18959V6.1896V6.18961V6.18962V6.18963V6.18964V6.18965V6.18966V6.18967V6.18968V6.18969V6.1897V6.18971V6.18972V6.18973V6.18974V6.18975V6.18976V6.18977V6.18978V6.18979V6.1898V6.18981V6.18982V6.18983V6.18984V6.18985V6.18986V6.18987V6.18988V6.18989V6.18991V6.18992V6.18993V6.18994V6.18995V6.18996V6.18997V6.18998V6.18999V6.19V6.19001V6.19002V6.19003V6.19004V6.19005V6.19006V6.19007V6.19008V6.19009V6.1901V6.1901V6.19011V6.19012V6.19013V6.19013V6.19014V6.19015V6.19016V6.19016V6.19017V6.19018V6.19019V6.19019V6.1902V6.19021V6.19022V6.19022V6.19023V6.19024V6.19025V6.19026V6.19026V6.19027V6.19028V6.19029V6.1903V6.1903V6.19031V6.19032V6.19033V6.19034V6.19034V6.19035V6.19036V6.19037V6.19038V6.19039V6.19039V6.1904V6.19041V6.19042V6.19043V6.19044V6.19045V6.19045V6.19046V6.19047V6.19048V6.19049V6.1905V6.19051V6.28936ZM0.5 4.00117V4.00041L0.516345 4.00171L0.5 4.00117Z" fill="#6969FF" stroke="#6969FF"/>
<path d="M8.07046 2.48768V2.48769V2.48769V2.4877V2.4877V2.48771V2.48771V2.48772V2.48772V2.48772V2.48773V2.48773V2.48774V2.48774V2.48775V2.48775V2.48776V2.48776V2.48776V2.48777V2.48777V2.48778V2.48778V2.48779V2.48779V2.4878V2.4878V2.48781V2.48781V2.48782V2.48782V2.48782V2.48783V2.48783V2.48784V2.48784V2.48785V2.48785V2.48786V2.48786V2.48787V2.48787V2.48788V2.48788V2.48789V2.48789V2.4879V2.4879V2.48791V2.48791V2.48791V2.48792V2.48792V2.48793V2.48793V2.48794V2.48794V2.48795V2.48795V2.48796V2.48796V2.48797V2.48797V2.48798V2.48798V2.48799V2.48799V2.488V2.488V2.48801V2.48801V2.48802V2.48802V2.48803V2.48803V2.48804V2.48804V2.48805V2.48805V2.48806V2.48806V2.48807V2.48807V2.48808V2.48808V2.48809V2.48809V2.4881V2.4881V2.48811V2.48811V2.48812V2.48812V2.48813V2.48813V2.48814V2.48814V2.48815V2.48815V2.48816V2.48816V2.48817V2.48817V2.48818V2.48818V2.48819V2.48819V2.4882V2.4882V2.48821V2.48821V2.48822V2.48822V2.48823V2.48823V2.48824V2.48825V2.48825V2.48826V2.48826V2.48827V2.48827V2.48828V2.48828V2.48829V2.48829V2.4883V2.4883V2.48831V2.48831V2.48832V2.48832V2.48833V2.48833V2.48834V2.48834V2.48835V2.48836V2.48836V2.48837V2.48837V2.48838V2.48838V2.48839V2.48839V2.4884V2.4884V2.48841V2.48841V2.48842V2.48842V2.48843V2.48843V2.48844V2.48845V2.48845V2.48846V2.48846V2.48847V2.48847V2.48848V2.48848V2.48849V2.48849V2.4885V2.4885V2.48851V2.48852V2.48852V2.48853V2.48853V2.48854V2.48854V2.48855V2.48855V2.48856V2.48856V2.48857V2.48857V2.48858V2.48859V2.48859V2.4886V2.4886V2.48861V2.48861V2.48862V2.48862V2.48863V2.48863V2.48864V2.48865V2.48865V2.48866V2.48866V2.48867V2.48867V2.48868V2.48868V2.48869V2.48869V2.4887V2.48871V2.48871V2.48872V2.48872V2.48873V2.48873V2.48874V2.48874V2.48875V2.48875V2.48876V2.48877V2.48877V2.48878V2.48878V2.48879V2.48879V2.4888V2.4888V2.48881V2.48881V2.48882V2.48883V2.48883V2.48884V2.48884V2.48885V2.48885V2.48886V2.48886V2.48887V2.48888V2.48888V2.48889V2.48889V2.4889V2.4889V2.48891V2.48891V2.48892V2.48892V2.48893V2.48894V2.48894V2.48895V2.48895V2.48896V2.48896V2.48897V2.48897V2.48898V2.48899V2.48899V2.489V2.489V2.48901V2.48901V2.48902V2.48902V2.48903V2.48904V2.48904V2.48905V2.48905V2.48906V2.48906V2.48907V2.48907V2.48908V2.48908V2.48909V2.4891V2.4891V2.48911V2.48911V2.48912V2.48912V2.48913V2.48913V2.48914V2.48915V2.48915V2.48916V2.48916V2.48917V2.48917V2.48918V2.48918V2.48919V2.4892V2.4892V2.48921V2.48921V2.48922V2.48922V2.48923V2.48923V2.48924V2.48924V2.48925V2.48926V2.48926V2.48927V2.48927V2.48928V2.48928V2.48929V2.48929V2.4893V2.4893V2.48931V2.48932V2.48932V2.48933V2.48933V2.48934V2.48934V2.48935V2.48935V2.48936V2.48936V2.48937V2.48938V2.48938V2.48939V2.48939V2.4894V2.4894V2.48941V2.48941V2.48942V2.48942V2.48943V2.48944V2.48944V2.48945V2.48945V2.48946V2.48946V2.48947V2.48947V2.48948V2.48948V2.48949V2.48949V2.4895V2.48951V2.48951V2.48952V2.48952V2.48953V2.48953V2.48954V2.48954V2.48955V2.48955V2.48956V2.48956V2.48957V2.48957V2.48958V2.48959V2.48959V2.4896V2.4896V2.48961V2.48961V2.48962V2.48962V2.48963V2.48963V2.48964V2.48964V2.48965V2.48965V2.48966V2.48967V2.48967V2.48968V2.48968V2.48969V2.48969V2.4897V2.4897V2.48971V2.48971V2.48972V2.48972V2.48973V2.48973V2.48974V2.48974V2.48975V2.48975V2.48976V2.48976V2.48977V2.48977V2.48978V2.48978V2.48979V2.4898V2.4898V2.48981V2.48981V2.48982V2.48982V2.48983V2.48983V2.48984V2.48984V2.48985V2.48985V2.48986V2.48986V2.48987V2.48987V2.48988V2.48988V2.48989V2.48989V2.4899V2.4899V2.48991V2.48991V2.48992V2.48992V2.48993V2.48993V2.48994V2.48994V2.48995V2.48995V2.48996V2.48996V2.48997V2.48997V2.48998V2.48998V2.48999V2.48999V2.49V2.49V2.49001V2.49001V2.49002V2.49002V2.49003V2.49003V2.49004V2.49004V2.49005V2.49005V2.49006V2.49006V2.49007V2.49007V2.49008V2.49008V2.49008V2.49009V2.49009V2.4901V2.4901V2.49011V2.49011V2.49012V2.49012V2.49013V2.49013V2.49014V2.49014V2.49015V2.49015V2.49016V2.49016V2.49017V2.49017V2.49018V2.49018V2.49018V2.49019V2.49019V2.4902V2.4902V2.49021V2.49021V2.49022V2.49022V2.49023V2.49023V2.49024V2.49024V2.49024V2.49025V2.49025V2.49026V2.49026V2.49027V2.49027V2.49028V2.49028V2.49028V2.49029V2.49029V2.4903V2.4903V2.49031V2.49031V2.49032V2.49032V2.49032V2.49033V2.49033V2.49034V2.49034V2.49035V2.49035V2.49036V2.49036V2.49037V2.49037V2.49038V2.49038V2.49039V2.49039V2.4904V2.4904V2.49041V2.49041V2.49042V2.49042V2.49043V2.49043V2.49044V2.49044V2.49045V2.49045V2.49046V2.49046V2.49047V2.49047V2.49048V2.49048V2.49049V2.49049V2.4905V2.49051V2.49051V2.49052V2.49052V2.49053V2.49053V2.49054V2.49055V2.49055V2.49056V2.49056V2.49057V2.49058V2.49058V2.49059V2.49059V2.4906V2.49061V2.49061V2.49062V2.49062V2.49063V2.49064V2.49064V2.49065V2.49065V2.49066V2.49067V2.49067V2.49068V2.49069V2.49069V2.4907V2.49071V2.49071V2.49072V2.49073V2.49073V2.49074V2.49075V2.49075V2.49076V2.49077V2.49077V2.49078V2.49079V2.49079V2.4908V2.49081V2.49081V2.49082V2.49083V2.49083V2.49084V2.49085V2.49085V2.49086V2.49087V2.49088V2.49088V2.49089V2.4909V2.4909V2.49091V2.49092V2.49093V2.49093V2.49094V2.49094V2.49095V2.49096V2.49096V2.49097V2.49097V2.49098V2.49098V2.49099V2.491V2.49101V2.49101V2.49102V2.49102V2.49103V2.49103V2.49104V2.49104V2.49105V2.49105V2.49106V2.49106V2.49106V2.49107V2.49107V2.49107V2.49108V2.49108V2.49109V2.49109V2.49109V2.4911V2.4911V2.49111V2.49111V2.49111V2.49112V2.49112V2.49112V2.49113V2.49113V2.49114V2.49114V2.49114V2.49115V2.49115V2.49116V2.49116V2.49116V2.49117V2.49117V2.49118V2.49118V2.49118V2.49119V2.49119V2.49119V2.4912V2.4912V2.49121V2.49121V2.49121V2.49122V2.49122V2.49123V2.49123V2.49123V2.49124V2.49124V2.49125V2.49125V2.49125V2.49126V2.49126V2.49127V2.49127V2.49127V2.49128V2.49128V2.49129V2.49129V2.49129V2.4913V2.4913V2.49131V2.49131V2.49131V2.49132V2.49132V2.49133V2.49133V2.49134V2.49134V2.49134V2.49135V2.49135V2.49136V2.49136V2.49136V2.49137V2.49137V2.49138V2.49138V2.49138V2.49139V2.49139V2.4914V2.4914V2.4914V2.49141V2.49141V2.49142V2.49142V2.49143V2.49143V2.49143V2.49144V2.49144V2.49145V2.49145V2.49145V2.49146V2.49146V2.49147V2.49147V2.49148V2.49148V2.49148V2.49149V2.49149V2.4915V2.4915V2.4915V2.49151V2.49151V2.49152V2.49152V2.49153V2.49153V2.49153V2.49154V2.49154V2.49155V2.49155V2.49156V2.49156V2.49156V2.49157V2.49157V2.49158V2.49158V2.49159V2.49159V2.49159V2.4916V2.4916V2.49161V2.49161V2.49161V2.49162V2.49162V2.49163V2.49163V2.49164V2.49164V2.49164V2.49165V2.49165V2.49166V2.49166V2.49167V2.49167V2.49167V2.49168V2.49168V2.49169V2.49169V2.4917V2.4917V2.4917V2.49171V2.49171V2.49172V2.49172V2.49173V2.49173V2.49173V2.49174V2.49174V2.49175V2.49175V2.49176V2.49176V2.49177V2.49177V2.49177V2.49178V2.49178V2.49179V2.49179V2.4918V2.4918V2.4918V2.49181V2.49181V2.49182V2.49182V2.49183V2.49183V2.49183V2.49184V2.49184V2.49185V2.49185V2.49186V2.49186V2.49187V2.49187V2.49187V2.49188V2.49188V2.49189V2.49189V2.4919V2.4919V2.4919V2.49191V2.49191V2.49192V2.49192V2.49193V2.49193V2.49194V2.49194V2.49194V2.49195V2.49195V2.49196V2.49196V2.49197V2.49197V2.49197V2.49198V2.49198V2.49199V2.49199V2.492V2.492V2.49201V2.49201V2.49201V2.49202V2.49202V2.49203V2.49203V2.49204V2.49204V2.49204V2.49205V2.49205V2.49206V2.49206V2.49207V2.49207V2.49208V2.49208V2.49208V2.49209V2.49209V2.4921V2.4921V2.49211V2.49211V2.49212V2.49212V2.49212V2.49213V2.49213V2.49214V2.49214V2.49215V2.49215V2.49216V2.49216V2.49216V2.49217V2.49217V2.49218V2.49218V2.49219V2.49219V2.49219V2.4922V2.4922C8.07046 3.08451 7.81226 3.61603 7.39588 3.98273H4.79087C4.37718 3.61807 4.1167 3.08373 4.1167 2.48768C4.1167 1.3878 5.00377 0.5 6.09358 0.5C7.18339 0.5 8.07046 1.3878 8.07046 2.48768Z" stroke="#6969FF"/>
</svg>
