<svg width="12" height="12" viewBox="0 0 12 12" fill="none" xmlns="http://www.w3.org/2000/svg">
<path d="M12 1.38551C12 2.15071 11.3797 2.77102 10.6145 2.77102H1.38551C0.620314 2.77102 0 2.15071 0 1.38551C0 0.620314 0.620314 0 1.38551 0H10.6145C11.3797 0 12 0.620314 12 1.38551ZM12 6C12 5.2348 11.3797 4.61449 10.6145 4.61449H1.38551C0.620314 4.61449 0 5.2348 0 6C0 6.7652 0.620314 7.38551 1.38551 7.38551H10.6145C11.3797 7.38551 12 6.7652 12 6ZM12 10.6145C12 9.84929 11.3797 9.22898 10.6145 9.22898H1.38551C0.620314 9.22898 0 9.84929 0 10.6145C0 11.3797 0.620314 12 1.38551 12H10.6145C11.3797 12 12 11.3797 12 10.6145Z" fill="#7B7B8F"/>
</svg>
