<svg width="12" height="12" viewBox="0 0 12 12" fill="none" xmlns="http://www.w3.org/2000/svg">
<rect x="0.25" y="0.25" width="11.5" height="11.5" rx="1.75" fill="white" stroke="white" stroke-width="0.5"/>
<mask id="mask0" mask-type="alpha" maskUnits="userSpaceOnUse" x="0" y="0" width="12" height="12">
<rect x="0.25" y="0.25" width="11.5" height="11.5" rx="1.75" fill="white" stroke="white" stroke-width="0.5"/>
</mask>
<g mask="url(#mask0)">
<path fill-rule="evenodd" clip-rule="evenodd" d="M0 8H12V4H0V8Z" fill="#0C47B7"/>
<path fill-rule="evenodd" clip-rule="evenodd" d="M0 12H12V8H0V12Z" fill="#E53B35"/>
</g>
<g clip-path="url(#clip0)">
<rect x="-2.40039" width="16.8" height="12" rx="2" fill="white"/>
<mask id="mask1" mask-type="alpha" maskUnits="userSpaceOnUse" x="-3" y="0" width="18" height="12">
<rect x="-2.40039" width="16.8" height="12" rx="2" fill="white"/>
</mask>
<g mask="url(#mask1)">
<rect x="-2.40039" width="16.8" height="12" fill="#0A17A7"/>
<path fill-rule="evenodd" clip-rule="evenodd" d="M1.60405 7.99993L-4.06444 11.8234L-3.16973 13.1498L3.99963 8.31404V12.7999H7.99963V8.3139L15.1692 13.1499L16.0639 11.8234L10.3954 7.99993H14.3996V3.99993H10.3956L16.0639 0.176558L15.1692 -1.1499L7.99963 3.68606V-0.80007H3.99963V3.68592L-3.16974 -1.14988L-4.06445 0.176581L1.60389 3.99993H-2.40038V7.99993H1.60405Z" fill="white"/>
<path d="M8.80078 3.79912L16.4 -1.2002" stroke="#DB1F35" stroke-width="0.666667" stroke-linecap="round"/>
<path d="M9.60742 8.21836L16.4197 12.8101" stroke="#DB1F35" stroke-width="0.666667" stroke-linecap="round"/>
<path d="M2.40269 3.78643L-4.70312 -1.00244" stroke="#DB1F35" stroke-width="0.666667" stroke-linecap="round"/>
<path d="M3.17339 8.16289L-4.70312 13.3862" stroke="#DB1F35" stroke-width="0.666667" stroke-linecap="round"/>
<path fill-rule="evenodd" clip-rule="evenodd" d="M-2.40039 7.2H4.79961V12H7.19961V7.2H14.3996V4.8H7.19961V0H4.79961V4.8H-2.40039V7.2Z" fill="#E6273E"/>
</g>
</g>
<defs>
<clipPath id="clip0">
<path d="M0 1C0 0.447715 0.447715 0 1 0H11C11.5523 0 12 0.447715 12 1V11C12 11.5523 11.5523 12 11 12H1C0.447715 12 0 11.5523 0 11V1Z" fill="white"/>
</clipPath>
</defs>
</svg>
