<svg width="14" height="14" viewBox="0 0 14 14" fill="none" xmlns="http://www.w3.org/2000/svg">
<path d="M7.00022 0H6.99891C6.71018 0 6.45952 0.168283 6.33134 0.416593L6.32916 0.420709L4.66681 3.68898C4.55614 3.89979 4.36365 4.05115 4.13486 4.09688L4.13005 4.0978L0.630378 4.7563C0.27035 4.8226 0 5.14728 0 5.53735C0 5.74999 0.080055 5.94297 0.210418 6.08564L2.66544 8.76172C2.79843 8.90165 2.88023 9.09417 2.88023 9.30727C2.88023 9.35391 2.87629 9.39918 2.86886 9.44354L2.86973 9.43897L2.39159 13.0973C2.38678 13.1302 2.38415 13.1682 2.38415 13.2071C2.38415 13.6447 2.72362 13.9995 3.14227 13.9995H3.14402C3.15058 14 3.15889 14 3.16677 14C3.28838 14 3.40343 13.9684 3.50361 13.9122L3.49967 13.914L6.62007 12.3409C6.73774 12.2797 6.87598 12.2435 7.02253 12.2435C7.16908 12.2435 7.30732 12.2797 7.43024 12.3432L7.42499 12.3409L10.499 13.914C10.5939 13.968 10.7072 13.9995 10.8271 13.9995H10.8319C10.8394 14 10.8477 14 10.8564 14C11.2751 14 11.6145 13.6451 11.6145 13.2075C11.6145 13.1686 11.6119 13.1302 11.6067 13.0932L11.6071 13.0973L11.129 9.43897C11.1237 9.40421 11.1206 9.36397 11.1206 9.32327C11.1206 9.112 11.2016 8.91994 11.3333 8.78047L13.7887 6.10394C13.9195 5.96172 14 5.76828 14 5.55519C14 5.16649 13.7323 4.84318 13.3792 4.7755L13.3744 4.77459L9.87476 4.11609C9.63591 4.06716 9.44037 3.90848 9.3345 3.69401L9.33231 3.68943L7.66997 0.421166C7.54004 0.168741 7.28894 0 7.00022 0Z" fill="#6969FF"/>
</svg>
