<svg width="13" height="14" viewBox="0 0 13 14" fill="none" xmlns="http://www.w3.org/2000/svg">
<path d="M13 8.86789C13 7.34254 12.4946 5.59237 11.238 4.62306C10.8333 5.91208 10.1113 5.91208 10.1113 5.91208C10.1113 5.91208 9.75 0 5.77796 0C5.77796 0 5.77796 5.06072 3.61129 5.06072C3.61129 5.06072 3.53167 3.05071 2.44833 3.05071C2.20296 4.40446 0 6.20784 0 8.86834C0.00379167 11.3125 2.01987 13.3703 4.7645 13.9911L4.81 14C4.05871 13.3792 2.03667 11.2331 5.05538 8.27682C5.05538 8.27682 5.05538 10.6416 7.22204 10.6416C8.01992 10.6416 8.66667 10.1121 8.66667 9.45897C8.66667 9.45897 10.667 12.2082 8.21871 13.9938C10.9948 13.3557 12.9968 11.3036 13 8.86834V8.86789Z" fill="url(#paint0_linear)"/>
<defs>
<linearGradient id="paint0_linear" x1="12.5273" y1="14.7" x2="-1.71184" y2="12.7949" gradientUnits="userSpaceOnUse">
<stop stop-color="#D200FF"/>
<stop offset="1" stop-color="#00D1FF"/>
</linearGradient>
</defs>
</svg>
