<svg width="34" height="38" viewBox="0 0 34 38" fill="none" xmlns="http://www.w3.org/2000/svg">
<path d="M33.1277 17.5299C33.1273 17.5299 33.1268 17.5298 33.1264 17.5295L2.5827 0.226854C2.33606 0.084912 2.03904 0 1.72137 0C0.770937 0 0 0.756604 0 1.68937C0 1.6919 0 1.69444 0 1.69697V36.3043C0 36.3068 0 36.3081 0 36.3106C0 37.2434 0.770937 38 1.72137 38C2.03775 38 2.33476 37.9164 2.59045 37.7693L2.5827 37.7731L33.127 20.4701C33.6526 20.1736 34 19.6273 34 19C34 18.3727 33.6526 17.8264 33.1361 17.5337L33.1289 17.5301C33.1285 17.53 33.1281 17.5299 33.1277 17.5299Z" fill="white"/>
</svg>
