<svg width="10" height="12" viewBox="0 0 10 12" fill="none" xmlns="http://www.w3.org/2000/svg">
<path d="M10 3.47192L8.61037 2.07192L7.78077 2.91423C6.98914 2.34231 6.00197 2 4.93583 2C2.20974 2 0 4.23846 0 7C0 9.76154 2.20974 12 4.93583 12C7.66193 12 9.87167 9.76154 9.87167 7C9.87167 6.01923 9.59298 5.10423 9.11117 4.33192L9.12332 4.35231L10 3.47192ZM4.94267 10.1354C3.23145 10.1354 1.84448 8.73038 1.84448 6.99692C1.84448 5.26346 3.23145 3.85846 4.94267 3.85846C6.65388 3.85846 8.04085 5.26346 8.04085 6.99692C8.03971 8.72962 6.6535 10.1342 4.94267 10.1354Z" fill="#7B7B8F"/>
<path d="M1 0H9V1H1V0Z" fill="#7B7B8F"/>
<path d="M5.48077 6.23528V4.45203C5.48077 4.20251 5.26538 4 5 4C4.73462 4 4.51923 4.20251 4.51923 4.45203V6.23528C4.20721 6.39846 4 6.70629 4 7.05978C4 7.57916 4.4476 8 5 8C5.5524 8 6 7.57916 6 7.05978C6 6.70629 5.79231 6.39846 5.48606 6.23799L5.48077 6.23573V6.23528Z" fill="#7B7B8F"/>
</svg>
