<svg width="10" height="10" viewBox="0 0 10 10" fill="none" xmlns="http://www.w3.org/2000/svg">
<path d="M10 8.5792L7.53196 6.11849C7.88356 5.52909 8.09179 4.81831 8.09179 4.05883C8.09179 1.81728 6.2803 0 4.04589 0C1.81149 0 0 1.81728 0 4.05883C0 6.30037 1.81149 8.11765 4.04589 8.11765C4.04665 8.11765 4.04703 8.11765 4.04779 8.11765C4.81206 8.11499 5.52589 7.90038 6.13427 7.52901L6.11644 7.53929L8.56931 10L10 8.5792ZM4.05803 6.08805C2.94064 6.08805 2.03527 5.17941 2.03527 4.05883C2.03527 2.93824 2.94102 2.0296 4.05803 2.0296C5.17542 2.0296 6.08079 2.93824 6.08079 4.05883C6.08079 5.17979 5.17504 6.08805 4.05803 6.08805Z" fill="#2F2F44"/>
</svg>
