<svg width="12" height="12" viewBox="0 0 12 12" fill="none" xmlns="http://www.w3.org/2000/svg">
<path d="M12 10.295L9.03835 7.34219C9.46027 6.63491 9.71015 5.78197 9.71015 4.87059C9.71015 2.18074 7.53636 0 4.85507 0C2.17379 0 0 2.18074 0 4.87059C0 7.56044 2.17379 9.74118 4.85507 9.74118H4.85735C5.77447 9.73799 6.63106 9.48046 7.36112 9.03481L7.33973 9.04714L10.2832 12L12 10.295ZM4.86964 7.30566C3.52877 7.30566 2.44233 6.21529 2.44233 4.87059C2.44233 3.52589 3.52922 2.43552 4.86964 2.43552C6.21051 2.43552 7.29695 3.52589 7.29695 4.87059C7.29695 6.21575 6.21005 7.30566 4.86964 7.30566Z" fill="url(#paint0_linear)"/>
<defs>
<linearGradient id="paint0_linear" x1="11.5636" y1="12.6" x2="-1.54334" y2="10.7115" gradientUnits="userSpaceOnUse">
<stop stop-color="#D200FF"/>
<stop offset="1" stop-color="#00D1FF"/>
</linearGradient>
</defs>
</svg>
