<svg width="11" height="14" viewBox="0 0 11 14" fill="none" xmlns="http://www.w3.org/2000/svg">
<path d="M5.5 0C5.4947 0 5.489 0 5.48288 0C2.45472 0 0 2.63498 0 5.8855C0 5.92444 0.00040747 5.96338 0.00122259 6.00231V5.99663V10.8908H3.54413V6.6966H1.87599V5.99663C1.87477 5.95813 1.87395 5.9135 1.87395 5.868C1.87395 3.73876 3.48218 2.01244 5.46576 2.01244C5.47799 2.01244 5.49022 2.01244 5.50204 2.01244H5.5C5.51019 2.01244 5.52241 2.01244 5.53464 2.01244C7.51823 2.01244 9.12645 3.73876 9.12645 5.868C9.12645 5.91307 9.12564 5.95813 9.12442 6.00319V5.99663V6.6966H7.45628V10.8908H8.994C8.64064 11.7951 7.51048 11.9876 5.5 11.9876V14C7.28796 14 10.9992 14 10.9992 10.1969V5.99706C11 5.96425 11 5.92531 11 5.88638C11 2.63586 8.54527 0.000874973 5.51712 0.000874973C5.511 0.000874973 5.50489 0.000874973 5.49878 0.000874973H5.49959L5.5 0Z" fill="#7B7B8F"/>
</svg>
