<svg width="14" height="14" viewBox="0 0 14 14" fill="none" xmlns="http://www.w3.org/2000/svg">
<path d="M14.0004 11.3089V8.74497H11.0472C11.0315 8.74409 11.0131 8.74365 10.9943 8.74365C10.2886 8.74365 9.7168 9.31796 9.7168 10.0267C9.7168 10.7355 10.2886 11.3098 10.9943 11.3098C11.0131 11.3098 11.0315 11.3094 11.0499 11.3085H11.0472L14.0004 11.3089ZM11.7275 10.028C11.7262 10.351 11.4655 10.6125 11.1435 10.6125C10.821 10.6125 10.5594 10.3497 10.5594 10.0258C10.5594 9.702 10.821 9.43924 11.1435 9.43924C11.4659 9.43924 11.7275 9.702 11.7275 10.0258C11.7275 10.0267 11.7275 10.0272 11.7275 10.028Z" fill="white"/>
<path d="M2.28172 4.4082C2.06778 4.40952 1.89453 4.58397 1.89453 4.79928V4.84102C1.89453 5.05589 2.06778 5.2299 2.28172 5.2299H3.79328C3.62703 4.99306 3.48003 4.72238 3.36541 4.43501L3.35578 4.4082H2.28172Z" fill="white"/>
<path d="M10.8677 4.4082C10.7434 4.72238 10.5964 4.99306 10.4219 5.24264L10.4302 5.2299H12.6877V4.4082H10.8677Z" fill="white"/>
<path d="M12.086 3.58416V2.94922H11.1563C11.1532 3.17595 11.1318 3.39522 11.0938 3.60833L11.0972 3.58416H12.086Z" fill="white"/>
<path d="M11.0469 7.92108H13.6128V7.22242C13.6128 7.22154 13.6128 7.2211 13.6128 7.22022C13.6128 6.57649 13.0939 6.05491 12.4534 6.05359H2.21813C1.57588 6.00877 1.07187 5.47401 1.07187 4.82149C1.07187 4.82061 1.07187 4.81929 1.07187 4.81841C1.071 4.80172 1.07013 4.78194 1.07013 4.76261C1.07013 4.74328 1.07056 4.7235 1.07187 4.70373V4.70637C1.12219 4.07713 1.64237 3.58543 2.27719 3.58368H3.11937C3.08525 3.39429 3.06469 3.17459 3.0625 2.95093V2.94873H1.54437C0.69125 2.95005 0 3.64475 0 4.50204V12.6531C0.0013125 13.3966 0.600688 13.9985 1.34094 13.9999H12.4513C13.0926 13.9999 13.6128 13.4774 13.6128 12.8332V12.1324H11.0469C11.0267 12.1333 11.0031 12.1337 10.9791 12.1337C9.82056 12.1337 8.88125 11.1903 8.88125 10.0267C8.88125 8.86317 9.82056 7.91976 10.9791 7.91976C11.0027 7.91976 11.0267 7.9202 11.0504 7.92108H11.0469Z" fill="white"/>
<path d="M9.49812 2.90229V2.9023V2.9023V2.90231V2.90231V2.90232V2.90233V2.90233V2.90234V2.90234V2.90235V2.90235V2.90236V2.90236V2.90237V2.90237V2.90238V2.90238V2.90239V2.90239V2.9024V2.9024V2.90241V2.90242V2.90242V2.90243V2.90243V2.90244V2.90244V2.90245V2.90245V2.90246V2.90246V2.90247V2.90247V2.90248V2.90249V2.90249V2.9025V2.9025V2.90251V2.90251V2.90252V2.90252V2.90253V2.90254V2.90254V2.90255V2.90255V2.90256V2.90256V2.90257V2.90257V2.90258V2.90259V2.90259V2.9026V2.9026V2.90261V2.90261V2.90262V2.90263V2.90263V2.90264V2.90264V2.90265V2.90265V2.90266V2.90267V2.90267V2.90268V2.90268V2.90269V2.90269V2.9027V2.90271V2.90271V2.90272V2.90272V2.90273V2.90273V2.90274V2.90275V2.90275V2.90276V2.90276V2.90277V2.90278V2.90278V2.90279V2.90279V2.9028V2.90281V2.90281V2.90282V2.90282V2.90283V2.90283V2.90284V2.90285V2.90285V2.90286V2.90286V2.90287V2.90288V2.90288V2.90289V2.90289V2.9029V2.90291V2.90291V2.90292V2.90292V2.90293V2.90294V2.90294V2.90295V2.90296V2.90296V2.90297V2.90297V2.90298V2.90299V2.90299V2.903V2.903V2.90301V2.90302V2.90302V2.90303V2.90303V2.90304V2.90305V2.90305V2.90306V2.90306V2.90307V2.90308V2.90308V2.90309V2.9031V2.9031V2.90311V2.90311V2.90312V2.90313V2.90313V2.90314V2.90315V2.90315V2.90316V2.90316V2.90317V2.90318V2.90318V2.90319V2.90319V2.9032V2.90321V2.90321V2.90322V2.90323V2.90323V2.90324V2.90324V2.90325V2.90326V2.90326V2.90327V2.90328V2.90328V2.90329V2.9033V2.9033V2.90331V2.90331V2.90332V2.90333V2.90333V2.90334V2.90335V2.90335V2.90336V2.90336V2.90337V2.90338V2.90338V2.90339V2.9034V2.9034V2.90341V2.90342V2.90342V2.90343V2.90343V2.90344V2.90345V2.90345V2.90346V2.90347V2.90347V2.90348V2.90349V2.90349V2.9035V2.9035V2.90351V2.90352V2.90352V2.90353V2.90354V2.90354V2.90355V2.90356V2.90356V2.90357V2.90357V2.90358V2.90359V2.90359V2.9036V2.90361V2.90361V2.90362V2.90363V2.90363V2.90364V2.90365V2.90365V2.90366V2.90366V2.90367V2.90368V2.90368V2.90369V2.9037V2.9037V2.90371V2.90372V2.90372V2.90373V2.90374V2.90374V2.90375V2.90375V2.90376V2.90377V2.90377V2.90378V2.90379V2.90379V2.9038V2.90381V2.90381V2.90382V2.90383V2.90383V2.90384V2.90384V2.90385V2.90386V2.90386V2.90387V2.90388V2.90388V2.90389V2.9039V2.9039V2.90391V2.90392V2.90392V2.90393V2.90393V2.90394V2.90395V2.90395V2.90396V2.90397V2.90397V2.90398V2.90399V2.90399V2.904V2.90401V2.90401V2.90402V2.90403V2.90403V2.90404V2.90404V2.90405V2.90406V2.90406V2.90407V2.90408V2.90408V2.90409V2.9041V2.9041V2.90411V2.90411V2.90412V2.90413V2.90413V2.90414V2.90415V2.90415V2.90416V2.90417V2.90417V2.90418V2.90419V2.90419V2.9042V2.9042V2.90421V2.90422V2.90422V2.90423V2.90424V2.90424V2.90425V2.90425V2.90426V2.90427V2.90427V2.90428V2.90429V2.90429V2.9043V2.90431V2.90431V2.90432V2.90432V2.90433V2.90434V2.90434V2.90435V2.90436V2.90436V2.90437V2.90438V2.90438V2.90439V2.90439V2.9044V2.90441V2.90441V2.90442V2.90443V2.90443V2.90444V2.90444V2.90445V2.90446V2.90446V2.90447V2.90448V2.90448V2.90449V2.90449V2.9045V2.90451V2.90451V2.90452V2.90453V2.90453V2.90454V2.90454V2.90455V2.90456V2.90456V2.90457V2.90457V2.90458V2.90459V2.90459V2.9046V2.90461V2.90461V2.90462V2.90462V2.90463V2.90464V2.90464V2.90465V2.90465V2.90466V2.90467V2.90467V2.90468V2.90469V2.90469V2.9047V2.9047V2.90471V2.90472V2.90472V2.90473V2.90473V2.90474V2.90475V2.90475V2.90476V2.90476V2.90477V2.90478V2.90478V2.90479V2.90479V2.9048V2.90481V2.90481V2.90482V2.90482V2.90483V2.90484V2.90484V2.90485V2.90485V2.90486V2.90486V2.90487V2.90488V2.90488V2.90489V2.90489V2.9049V2.90491V2.90491V2.90492V2.90492V2.90493V2.90494V2.90494V2.90495V2.90495V2.90496V2.90496V2.90497V2.90498V2.90498V2.90499V2.90499V2.905V2.905V2.90501V2.90502V2.90502V2.90503V2.90503V2.90504V2.90504V2.90505V2.90506V2.90506V2.90507V2.90507V2.90508V2.90508V2.90509V2.9051V2.9051V2.90511V2.90511V2.90512V2.90512V2.90513V2.90513V2.90514V2.90515V2.90515V2.90516V2.90516V2.90517V2.90517V2.90518V2.90518V2.90519V2.90519V2.9052V2.90521V2.90521V2.90522V2.90522V2.90523V2.90523V2.90524V2.90524V2.90525V2.90525V2.90526V2.90527V2.90527V2.90528V2.90528V2.90529V2.90529V2.9053V2.9053V2.90531V2.90531V2.90532V2.90532V2.90533V2.90533V2.90534V2.90534V2.90535V2.90535V2.90536V2.90536V2.90537V2.90538V2.90538V2.90539V2.90539V2.9054V2.9054V2.90541V2.90541V2.90542V2.90542V2.90543V2.90543V2.90544V2.90545V2.90545V2.90546V2.90546V2.90547V2.90547V2.90548V2.90549V2.90549V2.9055V2.9055V2.90551V2.90552V2.90552V2.90553V2.90554V2.90554V2.90555V2.90555V2.90556V2.90557V2.90557V2.90558V2.90559V2.90559V2.9056V2.90561V2.90561V2.90562V2.90563V2.90563V2.90564V2.90565V2.90565V2.90566V2.90567V2.90567V2.90568V2.90569V2.9057V2.9057V2.90571V2.90572V2.90572V2.90573V2.90574V2.90574V2.90575V2.90576V2.90576V2.90577V2.90578V2.90579V2.90579V2.9058V2.9058V2.90581V2.90581V2.90582V2.90582V2.90583V2.90583V2.90584V2.90584V2.90584V2.90585V2.90585V2.90585V2.90586V2.90586V2.90587V2.90587V2.90587V2.90588V2.90588V2.90589V2.90589V2.90589V2.9059V2.9059V2.90591V2.90591V2.90591V2.90592V2.90592V2.90593V2.90593V2.90593V2.90594V2.90594V2.90595V2.90595V2.90595V2.90596V2.90596V2.90597V2.90597V2.90597V2.90598V2.90598V2.90599V2.90599V2.90599V2.906V2.906V2.90601V2.90601V2.90601V2.90602V2.90602V2.90603V2.90603V2.90603V2.90604V2.90604V2.90605V2.90605V2.90606V2.90606V2.90606V2.90607V2.90607V2.90608V2.90608V2.90609V2.90609V2.90609V2.9061V2.9061V2.90611V2.90611V2.90611V2.90612V2.90612V2.90613V2.90613V2.90614V2.90614V2.90614V2.90615V2.90615V2.90616V2.90616V2.90617V2.90617V2.90618V2.90618V2.90618V2.90619V2.90619V2.9062V2.9062V2.90621V2.90621V2.90621V2.90622V2.90622V2.90623V2.90623V2.90624V2.90624V2.90625V2.90625V2.90625V2.90626V2.90626V2.90627V2.90627V2.90628V2.90628V2.90629V2.90629V2.90629V2.9063V2.9063V2.90631V2.90631V2.90632V2.90632V2.90633V2.90633V2.90634V2.90634V2.90634V2.90635V2.90635V2.90636V2.90636V2.90637V2.90637V2.90638V2.90638V2.90639V2.90639V2.90639V2.9064V2.9064V2.90641V2.90641V2.90642V2.90642V2.90643V2.90643V2.90644V2.90644V2.90645V2.90645V2.90646V2.90646V2.90646V2.90647V2.90647V2.90648V2.90648V2.90649V2.90649V2.9065V2.9065V2.90651V2.90651V2.90652V2.90652V2.90653V2.90653V2.90653V2.90654V2.90654V2.90655V2.90655V2.90656V2.90656V2.90657V2.90657V2.90658V2.90658V2.90659V2.90659V2.9066V2.9066V2.90661V2.90661V2.90662V2.90662V2.90663V2.90663V2.90664V2.90664V2.90664V2.90665V2.90665V2.90666V2.90666V2.90667V2.90667V2.90668V2.90668V2.90669V2.90669V2.9067V2.9067V2.90671V2.90671V2.90672V2.90672V2.90673V2.90673V2.90674V2.90674V2.90675V2.90675V2.90676V2.90676V2.90677V2.90677V2.90678V2.90678V2.90679V2.90679V2.9068V2.9068V2.90681V2.90681V2.90682V2.90682V2.90683V2.90683V2.90684V2.90684V2.90685V2.90685V2.90686V2.90686V2.90687V2.90687V2.90688V2.90688V2.90688V2.90689V2.90689V2.9069V2.9069V2.90691V2.90691V2.90692V2.90692V2.90693V2.90693V2.90694V2.90694V2.90695V2.90695V2.90696V2.90696V2.90697V2.90698V2.90698V2.90699V2.90699V2.907V2.907V2.90701V2.90701V2.90702V2.90702V2.90703V2.90703V2.90704V2.90704V2.90705V2.90705V2.90706V2.90706V2.90707V2.90707V2.90708V2.90708V2.90709V2.90709V2.9071V2.9071V2.90711V2.90711V2.90712V2.90712V2.90713V2.90713V2.90714V2.90714V2.90715V2.90715V2.90716V2.90716V2.90717V2.90717V2.90718V2.90718V2.90719V2.90719V2.9072V2.9072V2.90721V2.90721V2.90722V2.90722V2.90723V2.90723V2.90724V2.90724V2.90725V2.90725V2.90726V2.90726V2.90727V2.90727V2.90728V2.90728V2.90729V2.90729V2.9073V2.90731V2.90731V2.90732V2.90732V2.90733V2.90733V2.90734V2.90734V2.90735V2.90735V2.90736V2.90736V2.90737V2.90737V2.90738V2.90738V2.90739V2.90739V2.9074V2.9074V2.90741V2.90741V2.90742V2.90742V2.90743V2.90743V2.90744V2.90744V2.90745V2.90745V2.90746V2.90746V2.90747V2.90747V2.90748V2.90748V2.90749V2.9075V2.9075V2.90751V2.90751V2.90752V2.90752V2.90753V2.90753V2.90754V2.90754V2.90755V2.90755V2.90756V2.90756V2.90757C9.49812 3.63486 9.17591 4.28631 8.65893 4.72984H5.55744C5.0437 4.28885 4.71875 3.63398 4.71875 2.90229C4.71875 1.57342 5.79063 0.5 7.10844 0.5C8.42625 0.5 9.49812 1.57342 9.49812 2.90229Z" stroke="white"/>
</svg>
