<svg width="132" height="46" viewBox="0 0 132 46" fill="none" xmlns="http://www.w3.org/2000/svg">
<path d="M16.4154 16.6377L16.3953 16.6336V16.6377L14.1445 17.9918L11.3894 15.8006L11.3573 15.7944L13.0795 18.4412L11.512 19.7748H10.4871H9.46225L7.89478 18.4412L9.61498 15.7985L9.58081 15.8047L6.82971 17.9918L4.579 16.6377L0.0976562 26.0551L10.4871 45.8542C10.4871 45.8542 10.4932 45.8644 10.4972 45.8727C10.5032 45.8624 10.5072 45.8542 10.5072 45.8542L20.8967 26.0551L16.4154 16.6377Z" fill="#E5EDF8"/>
<path d="M10.4872 14.5859L7.37236 16.6377L6.82977 17.9918L1.93848 26.7424L10.4872 26.4654L19.0319 26.7362L14.1446 17.9918L13.602 16.6377L10.4872 14.5859Z" fill="#89A6F2"/>
<path d="M10.4872 1.10596L6.76953 8.06129L10.4872 12.3699L14.205 8.06129L10.4872 1.10596Z" fill="#B7F8F4"/>
<path d="M1.98665 26.7523L0.0976562 26.0547L10.4871 45.8743L1.98665 26.7523Z" fill="#BFD7F9"/>
<path d="M10.4876 4.36819L12.0149 7.81508L14.2053 8.06129L10.4775 1.10596L10.4876 4.36819Z" fill="#BFD7F9"/>
<path d="M10.4876 10.1866L12.0149 7.80664L14.2053 8.06105L10.4775 12.3717L10.4876 10.1866Z" fill="#89A6F4"/>
<path d="M10.5073 10.1949L8.98005 7.81494L6.76953 8.06115L10.4872 12.3698L10.5073 10.1949Z" fill="#89A6F4"/>
<path d="M10.4872 4.36819L8.98006 7.81508L6.76953 8.06129L10.4671 1.10596L10.4872 4.36819Z" fill="#BFD7F9"/>
<path d="M10.4867 4.29248V4.36839L8.97949 7.81528L10.4947 10.1768L12.0119 7.81118L10.4867 4.36839V4.29248Z" fill="#B7F8F4"/>
<path d="M18.9878 26.7523L20.8768 26.0547L10.4873 45.8743L18.9878 26.7523Z" fill="#BFD7F9"/>
<path d="M7.36182 6.95127L6.03549 5.44531L5.43262 8.58444L6.12592 9.16508L7.36182 6.95127Z" fill="#BFD7F9"/>
<path d="M6.0358 5.44531L5.43293 8.58444L4.91044 9.4872L4.44824 9.56927L6.0358 5.44531Z" fill="#BFD7F9"/>
<path d="M4.91044 9.4873L5.55953 10.1503L5.16164 10.8522L4.44824 9.56941L4.91044 9.4873Z" fill="#89A6F2"/>
<path d="M14.958 5.44531L15.5609 8.58444L16.0834 9.4872L16.5456 9.56927L14.958 5.44531Z" fill="#BFD7F9"/>
<path d="M13.6123 6.94922L14.9587 5.44531L15.5616 8.58444L14.8542 9.17739L13.6123 6.94922Z" fill="#BFD7F9"/>
<path d="M16.084 9.4873L15.4229 10.1626L15.8268 10.8625L16.5462 9.56941L16.084 9.4873Z" fill="#89A6F2"/>
<path d="M9.80426 12.3697L6.60904 11.0771L3.73535 12.7596L4.31813 13.6008L6.48847 12.698L9.20139 13.5803L9.80426 12.3697Z" fill="#E5EDF8"/>
<path d="M5.27593 13.2011L5.08301 13.2812L5.84463 14.2171L8.03507 14.5866L9.20062 13.5808L6.4877 12.6982L5.27593 13.2011Z" fill="#B7F8F4"/>
<path d="M15.6981 13.2011L15.891 13.2812L15.1294 14.2171L12.939 14.5866L11.7734 13.5808L14.4864 12.6982L15.6981 13.2011Z" fill="#B7F8F4"/>
<path d="M5.08301 13.2808L5.62358 15.0788L7.73363 15.4277L9.20062 13.5804L8.03507 14.5862L5.84463 14.2167L5.08301 13.2808Z" fill="#C3AAEE"/>
<path d="M5.08317 13.2808L4.31753 13.6008L4.30347 13.5803L4.27734 13.6008L4.57878 16.6374L4.96059 15.2012L5.63379 15.0883V15.0801L5.62374 15.0781L5.08317 13.2808Z" fill="#8BA6F3"/>
<path d="M15.8905 13.2808L16.6562 13.6008L16.6703 13.5803L16.6964 13.6008L16.3949 16.6374L16.0131 15.2012L15.3399 15.0883L15.3379 15.0801L15.3499 15.0781L15.8905 13.2808Z" fill="#8BA6F3"/>
<path d="M7.15092 20.8843L8.59781 22.3L5.48298 29.6656L1.98633 26.7522L7.15092 20.8843Z" fill="#E5EDF8"/>
<path d="M10.4872 22.3003H8.59822L5.4834 29.666H10.4872H15.491L12.3762 22.3003H10.4872Z" fill="#E5EDF8"/>
<path d="M1.98633 26.7524L10.4868 45.854L5.48298 29.6659L1.98633 26.7524Z" fill="#89A6F2"/>
<path d="M11.1699 12.3697L14.3651 11.0771L17.2388 12.7596L16.656 13.6008L14.4857 12.698L11.7728 13.5803L11.1699 12.3697Z" fill="#E5EDF8"/>
<path d="M15.891 13.2808L15.3505 15.0788L13.2404 15.4277L11.7734 13.5804L12.939 14.5862L15.1294 14.2167L15.891 13.2808Z" fill="#C3AAEE"/>
<path d="M16.6965 12.3698L14.1544 7.9668L14.2046 8.06118L10.4869 12.3698L6.76921 8.06118L6.81945 7.9668L4.27734 12.3698L4.42605 12.3554L6.60844 11.0772L9.80365 12.3698L9.20078 13.5803L7.7338 15.4269L5.6338 15.0801V15.0883L4.9606 15.2012L4.57878 16.6374L6.82949 17.9915L9.64289 15.7551L7.89457 18.4429L9.46203 19.7765H10.4869H11.5118L13.0793 18.4429L11.3309 15.7551L14.1443 17.9915L16.395 16.6374L16.0132 15.2012L15.3601 15.0883L15.3541 15.0822L15.3501 15.0781L13.24 15.4269L11.773 13.5803L11.1702 12.3698L14.3654 11.0772L16.5478 12.3554L16.6965 12.3698Z" fill="#CEC4F6"/>
<path d="M4.91016 9.48759L5.55925 10.1506L6.12595 9.16534L5.43264 8.58447L4.91016 9.48759Z" fill="#B7F8F4"/>
<path d="M16.0834 9.48759L15.4222 10.1629L14.8535 9.17766L15.5609 8.58447L16.0834 9.48759Z" fill="#B7F8F4"/>
<path d="M20.2741 16.8638L17.4406 5.74347C17.4406 5.74347 13.2185 3.64662 11.3496 2.71924L13.6124 6.95399H13.6144L13.6124 6.95194L14.9588 5.44803L16.5464 9.57198L15.8269 10.8646L15.8249 10.8605L16.6991 12.3726L16.5504 12.3582L16.5303 12.3459L17.2417 12.7624L16.689 13.5585L20.2741 16.8638Z" fill="#E2ECF6"/>
<path d="M4.44804 9.56993L6.0356 5.44597L7.36192 6.95194L7.35187 6.9704L9.62469 2.71924C7.7558 3.64662 3.53369 5.74347 3.53369 5.74347L0.700195 16.8638L4.29532 13.5687L3.73465 12.7604L4.42594 12.3562L4.27723 12.3705L5.15742 10.8461L4.44804 9.56993Z" fill="#E2ECF6"/>
<path d="M13.8229 20.8843L12.376 22.3L15.4908 29.6656L18.9875 26.7522L13.8229 20.8843Z" fill="#E5EDF8"/>
<path d="M18.9878 26.7524L10.4873 45.854L15.4911 29.6659L18.9878 26.7524Z" fill="#89A6F2"/>
<path d="M10.4872 45.8541L5.4834 29.666H10.4872H15.491L10.4872 45.8541Z" fill="#BFD7F9"/>
<path d="M10.4873 20.8843H7.15137L8.59826 22.3005H10.4873H12.3762L13.8231 20.8843H10.4873Z" fill="#C4AAF1"/>
<path d="M4.57867 16.6382L4.27724 13.6017L4.30336 13.5812L4.29532 13.5688L0.700195 16.8639L2.65953 20.6698L4.57867 16.6382Z" fill="#BFD7F9"/>
<path d="M16.4146 16.6373L18.3237 20.6485L20.273 16.863L16.6859 13.5557L16.6698 13.5803L16.696 13.6008L16.3945 16.6332L16.4146 16.6373Z" fill="#BFD7F9"/>
<path d="M20.9879 26.0104L18.4378 20.6513L20.363 16.911C20.363 16.909 20.363 16.909 20.365 16.9069C20.367 16.9028 20.369 16.9008 20.369 16.8967C20.369 16.8946 20.371 16.8926 20.371 16.8905C20.371 16.8864 20.373 16.8823 20.373 16.8802C20.373 16.8782 20.373 16.8761 20.373 16.8741C20.373 16.87 20.373 16.8659 20.373 16.8618C20.373 16.8597 20.373 16.8577 20.373 16.8556C20.373 16.8495 20.371 16.8433 20.371 16.8372L17.5375 5.71684C17.5315 5.69427 17.5194 5.67581 17.5033 5.66144L17.5013 5.65939C17.4973 5.65529 17.4913 5.65119 17.4853 5.64913L11.4123 2.62285L10.5764 1.05739C10.5663 1.03892 10.5522 1.02456 10.5342 1.0143C10.5221 1.00609 10.51 1.00199 10.496 0.999937C10.496 0.999937 10.496 0.999937 10.494 0.999937C10.4498 0.987627 10.4035 1.0102 10.3814 1.05123L9.53741 2.63721L3.49263 5.65119C3.48861 5.65324 3.4866 5.65529 3.48258 5.65734C3.48057 5.65939 3.47655 5.66144 3.47454 5.6635C3.47053 5.6676 3.46651 5.66965 3.4645 5.67375C3.46249 5.67581 3.46048 5.67581 3.46048 5.67786C3.45646 5.68196 3.45445 5.68812 3.45043 5.69222C3.45043 5.69427 3.44842 5.69427 3.44842 5.69632C3.4444 5.70248 3.44239 5.71069 3.44038 5.71684L0.60689 16.8372C0.60488 16.8433 0.60488 16.8495 0.60488 16.8556C0.60488 16.8577 0.60488 16.8597 0.60488 16.8618C0.60488 16.8659 0.60488 16.87 0.60488 16.8741C0.60488 16.8761 0.60488 16.8782 0.60488 16.8802C0.60488 16.8844 0.60689 16.8885 0.60689 16.8905C0.60689 16.8926 0.608899 16.8946 0.608899 16.8967C0.610909 16.9008 0.610909 16.9028 0.612918 16.9069C0.612918 16.909 0.612919 16.909 0.614928 16.911L2.54813 20.6718L0.00803828 26.0104V26.0125C0.00803828 26.0145 0.00602871 26.0166 0.00602871 26.0166C0.00401914 26.0186 0.00401914 26.0227 0.00401914 26.0248C0.00401914 26.0268 0.00401914 26.0289 0.00200957 26.0289C0.00200957 26.033 0 26.035 0 26.0391C0 26.0412 0 26.0412 0 26.0432C0 26.0473 0 26.0514 0 26.0576C0 26.0596 0 26.0596 0 26.0617C0 26.0658 0 26.0678 0.00200957 26.0719C0.00200957 26.074 0.00200957 26.0761 0.00200957 26.0761C0.00200957 26.0802 0.00401914 26.0822 0.00401914 26.0863C0.00401914 26.0884 0.00401914 26.0884 0.00602871 26.0904C0.00803828 26.0945 0.0100478 26.0986 0.0120574 26.1027L0.014067 26.1048L10.4015 45.9223C10.4015 45.9223 10.4015 45.9244 10.4035 45.9244C10.4035 45.9264 10.4055 45.9264 10.4055 45.9285C10.4076 45.9326 10.4096 45.9367 10.4136 45.9388C10.4156 45.9408 10.4156 45.9408 10.4176 45.9429C10.4216 45.947 10.4256 45.9511 10.4297 45.9552C10.4297 45.9552 10.4297 45.9552 10.4317 45.9552C10.4357 45.9593 10.4417 45.9613 10.4457 45.9634C10.4457 45.9634 10.4477 45.9634 10.4477 45.9654C10.4498 45.9654 10.4498 45.9654 10.4518 45.9675C10.4538 45.9675 10.4558 45.9695 10.4558 45.9695C10.4578 45.9695 10.4598 45.9716 10.4638 45.9716C10.4658 45.9716 10.4658 45.9716 10.4678 45.9736C10.4699 45.9736 10.4739 45.9757 10.4759 45.9757C10.4779 45.9757 10.4779 45.9757 10.4799 45.9757C10.4839 45.9757 10.4879 45.9757 10.492 45.9757C10.496 45.9757 10.5 45.9757 10.504 45.9757C10.506 45.9757 10.506 45.9757 10.508 45.9757C10.51 45.9757 10.51 45.9757 10.5121 45.9757C10.5462 45.9716 10.5764 45.9531 10.5924 45.9223L20.992 26.1048C21.002 26.074 21.002 26.0391 20.9879 26.0104ZM3.62124 5.81532L9.36258 2.96343L7.33895 6.76937L6.1111 5.37626C6.10708 5.37215 6.10306 5.36805 6.09904 5.366C6.09703 5.36394 6.09703 5.36394 6.09502 5.36394C6.091 5.36189 6.08899 5.35984 6.08497 5.35779C6.08296 5.35779 6.08096 5.35574 6.08096 5.35574C6.07493 5.35369 6.07091 5.35163 6.06488 5.34958C6.05885 5.34753 6.05483 5.34753 6.0488 5.34548C6.04679 5.34548 6.04478 5.34548 6.04277 5.34548C6.03875 5.34548 6.03474 5.34548 6.03072 5.34548C6.02871 5.34548 6.0267 5.34548 6.0267 5.34548C6.02067 5.34548 6.01665 5.34753 6.01062 5.34753H6.00861C6.00459 5.34958 5.99856 5.35163 5.99454 5.35369C5.99253 5.35369 5.99253 5.35574 5.99053 5.35574C5.98651 5.35779 5.9845 5.35984 5.98048 5.36189C5.97847 5.36189 5.97847 5.36394 5.97646 5.36394C5.97244 5.36805 5.96842 5.3701 5.9644 5.3742C5.9644 5.3742 5.9644 5.3742 5.96239 5.37626L5.96038 5.37831C5.94832 5.38857 5.93828 5.40293 5.93225 5.41934L4.7044 8.62413L4.35474 9.53099V9.53304C4.35474 9.53509 4.35273 9.53714 4.35273 9.54125C4.35273 9.5433 4.35273 9.54535 4.35072 9.5474V9.54945L4.34469 9.56176C4.33263 9.59049 4.33665 9.62331 4.35273 9.65204L5.04201 10.8441L4.19196 12.3172C4.1799 12.3377 4.17588 12.3603 4.1799 12.3808L3.68555 12.6701C3.66143 12.6845 3.64335 12.7091 3.63732 12.7378C3.63129 12.7665 3.63732 12.7953 3.6534 12.8199L4.16182 13.5544L0.882201 16.5602L3.62124 5.81532ZM20.0937 16.5581L16.8221 13.5421L17.3225 12.8199C17.3386 12.7973 17.3446 12.7665 17.3386 12.7378C17.3325 12.7091 17.3144 12.6845 17.2903 12.6701L16.796 12.3829C16.798 12.3603 16.794 12.3377 16.7839 12.3193L15.9439 10.8626L16.4363 9.97826L16.6232 9.65409C16.6292 9.64383 16.6332 9.63152 16.6352 9.61921C16.6352 9.61921 16.6352 9.61716 16.6372 9.61716C16.6372 9.61511 16.6392 9.61511 16.6392 9.61306C16.6412 9.611 16.6412 9.6069 16.6432 9.60485C16.6432 9.6028 16.6433 9.6028 16.6453 9.60075C16.6473 9.59664 16.6473 9.59254 16.6473 9.58844C16.6473 9.58844 16.6473 9.58844 16.6473 9.58638C16.6473 9.58228 16.6473 9.57818 16.6493 9.57407C16.6493 9.57202 16.6493 9.57202 16.6493 9.56997C16.6493 9.56792 16.6493 9.56382 16.6493 9.56176C16.6493 9.55971 16.6493 9.55766 16.6493 9.55766C16.6493 9.55561 16.6493 9.55151 16.6473 9.54945C16.6473 9.5474 16.6473 9.54535 16.6453 9.5433C16.6453 9.54125 16.6432 9.5392 16.6432 9.53509V9.53304L15.0557 5.40908C15.0557 5.40908 15.0557 5.40703 15.0537 5.40703C15.0517 5.40293 15.0497 5.39882 15.0477 5.39472C15.0477 5.39267 15.0456 5.39267 15.0456 5.39062C15.0416 5.38651 15.0396 5.38241 15.0356 5.37831C15.0356 5.37831 15.0356 5.37831 15.0336 5.37626C15.0296 5.37215 15.0255 5.3701 15.0235 5.366C15.0215 5.36394 15.0215 5.36394 15.0195 5.36394C15.0155 5.36189 15.0135 5.35984 15.0095 5.35779C15.0075 5.35779 15.0075 5.35574 15.0055 5.35574C15.0014 5.35369 14.9974 5.35163 14.9914 5.34958H14.9894C14.9833 5.34753 14.9793 5.34753 14.9733 5.34753C14.9713 5.34753 14.9693 5.34753 14.9673 5.34753C14.9633 5.34753 14.9592 5.34753 14.9552 5.34753C14.9532 5.34753 14.9512 5.34753 14.9492 5.34753C14.9432 5.34753 14.9391 5.34958 14.9331 5.35163C14.9271 5.35369 14.9231 5.35574 14.917 5.35779C14.915 5.35779 14.913 5.35984 14.913 5.35984C14.909 5.36189 14.907 5.36394 14.903 5.366C14.901 5.366 14.901 5.36805 14.8989 5.36805C14.8949 5.37215 14.8909 5.3742 14.8869 5.38036L14.8849 5.38241C14.8829 5.38446 14.8788 5.38651 14.8768 5.39062L13.6369 6.77963L12.9778 5.5486L11.5912 2.95523L17.3587 5.81737L19.3582 13.6693L20.0937 16.5581ZM4.69636 16.5889L5.04201 15.2922L5.65091 15.1896C5.65292 15.1896 5.65694 15.1876 5.65895 15.1876L7.71875 15.5282C7.72478 15.5282 7.7288 15.5302 7.73483 15.5302C7.76497 15.5302 7.79311 15.5159 7.8132 15.4912L9.14354 13.817L9.53339 15.7149L6.82249 17.8692L4.69636 16.5889ZM4.35474 13.4744L3.88249 12.7932L6.61751 11.1908L9.66603 12.4239L9.15158 13.4559L6.51904 12.6004C6.49694 12.5922 6.47282 12.5942 6.45072 12.6024L4.35474 13.4744ZM12.7989 5.64298L14.0188 7.92654L12.0815 7.70906L10.5884 4.33808L10.5804 1.50261L12.7989 5.64298ZM10.3332 12.0361L6.98325 8.13377L8.92048 7.91628L10.3955 10.2163L10.3774 12.0915L10.3332 12.0361ZM5.54038 9.98442L5.03799 9.47149L5.46201 8.74108L5.99856 9.19245L5.54038 9.98442ZM5.37359 10.1055L5.15053 10.6246L4.60593 9.64588L4.87521 9.59869L5.37359 10.1055ZM6.09904 9.00985L5.5444 8.54411L6.09301 5.68196L7.21435 6.93556L6.09904 9.00985ZM10.5985 10.2142L12.0735 7.91628L14.0087 8.13377L10.6166 12.0669L10.5985 10.2142ZM16.1469 9.39352L15.6566 8.54616L15.4074 7.24537L15.2868 6.6196L16.3639 9.43251L16.1911 9.40173L16.1469 9.39352ZM13.7816 6.93556L14.901 5.66555L15.4516 8.54411L14.8969 9.00985L13.7816 6.93556ZM15.536 8.73902L15.96 9.46944L15.4455 9.99468L14.9874 9.20066L15.536 8.73902ZM15.8374 10.6081L15.6224 10.1055L16.1188 9.59869L16.388 9.64588L16.2614 9.87568L15.8374 10.6081ZM11.9047 7.80549L10.498 9.99673L9.07923 7.78703L10.4879 4.61096L11.9047 7.80549ZM10.3875 4.34014L8.89435 7.71111L6.95713 7.92859L10.3694 1.53954L10.3875 4.34014ZM5.72526 6.53548L5.33942 8.54616L4.84909 9.39352L4.60995 9.43661L4.8933 8.69594L5.72526 6.53548ZM5.22488 10.9303C5.23694 10.92 5.24698 10.9077 5.25301 10.8913L5.27311 10.8461L6.7823 8.23225L10.1805 12.1716L10.3995 12.426C10.4015 12.428 10.4035 12.4301 10.4055 12.4321L10.4096 12.4362C10.4277 12.4588 10.4558 12.4711 10.4859 12.4711C10.502 12.4711 10.5181 12.467 10.5322 12.4588C10.5543 12.4547 10.5744 12.4444 10.5904 12.426L14.1896 8.23225L16.4805 12.1982L14.4166 10.9877C14.3905 10.9713 14.3584 10.9692 14.3302 10.9816L11.135 12.2741C11.1089 12.2844 11.0888 12.307 11.0788 12.3336C11.0687 12.3603 11.0707 12.3911 11.0828 12.4157L11.6736 13.5995L11.2355 15.7333C11.2295 15.76 11.2355 15.7887 11.2496 15.8113L12.9477 18.4231L11.4766 19.6747H9.49923L8.02823 18.4231L9.72631 15.8113C9.74038 15.7887 9.74641 15.76 9.74038 15.7333L9.30229 13.5995L9.89311 12.4157C9.90516 12.389 9.90718 12.3603 9.89713 12.3336C9.88708 12.307 9.86698 12.2844 9.84086 12.2741L6.64564 10.9816C6.61751 10.9692 6.58536 10.9733 6.55923 10.9877L4.49541 12.1982L5.22488 10.9303ZM16.6211 13.4744L14.5252 12.6024C14.5131 12.5983 14.501 12.5942 14.487 12.5942C14.4769 12.5942 14.4669 12.5963 14.4568 12.5983L11.8243 13.4539L11.3099 12.4239L14.3584 11.1908L17.0934 12.7932L16.6211 13.4744ZM15.6485 13.735L15.2727 14.9865L13.2812 15.3148L12.5558 14.4018L12.8532 14.6623C12.8713 14.6788 12.8954 14.687 12.9195 14.687C12.9235 14.687 12.9255 14.687 12.9296 14.687C12.9376 14.687 12.9477 14.687 12.9557 14.687L13.2109 14.6439L15.1642 14.3382C15.1944 14.3341 15.2185 14.3156 15.2345 14.291L15.335 14.1227L15.6485 13.735ZM16.2795 16.591L14.1574 17.8671L11.4445 15.7108L11.8323 13.817L13.1627 15.4912C13.1828 15.5159 13.2109 15.5302 13.241 15.5302C13.2471 15.5302 13.2511 15.5302 13.2571 15.5282L15.3169 15.1876C15.3189 15.1876 15.323 15.1896 15.325 15.1896L15.9339 15.2922L16.2795 16.591ZM15.6083 13.2754L15.1722 14.0017L15.0758 14.1207L13.1808 14.4408L12.9657 14.4736L11.977 13.6201L14.483 12.8055L15.6083 13.2754ZM5.90009 14.1207L5.80363 14.0017L5.36756 13.2754L6.49292 12.8076L8.99885 13.6221L8.01014 14.4756L7.79512 14.4428L5.90009 14.1207ZM5.63885 14.1207L5.73933 14.2889C5.75541 14.3156 5.78153 14.332 5.80966 14.3361L7.76296 14.6418L8.01818 14.6849C8.02823 14.687 8.03627 14.687 8.0443 14.6849C8.04832 14.6849 8.05033 14.6849 8.05435 14.6849C8.07847 14.6849 8.10057 14.6767 8.12067 14.6603L8.41808 14.3997L7.69263 15.3168L5.70115 14.9886L5.32536 13.737L5.63885 14.1207ZM6.90689 18.06L9.21789 16.2237L7.81119 18.3862C7.78306 18.4293 7.7911 18.4888 7.83129 18.5216L9.39875 19.8552C9.41684 19.8696 9.43894 19.8799 9.46306 19.8799H11.5128C11.5369 19.8799 11.559 19.8717 11.5771 19.8552L13.1446 18.5216C13.1848 18.4888 13.1928 18.4293 13.1647 18.3862L11.754 16.2155L14.065 18.0538L18.5825 26.1356L13.8982 20.8154L13.8962 20.8134C13.8921 20.8093 13.8901 20.8072 13.8861 20.8031C13.8841 20.8031 13.8841 20.8011 13.8821 20.8011C13.8781 20.797 13.8721 20.7949 13.866 20.7908H13.864C13.86 20.7888 13.854 20.7867 13.8499 20.7847C13.8479 20.7847 13.8459 20.7847 13.8439 20.7826C13.8399 20.7826 13.8359 20.7806 13.8299 20.7806C13.8278 20.7806 13.8278 20.7806 13.8258 20.7806H13.8238H13.8218H7.15206H7.15005H7.14804C7.14603 20.7806 7.14603 20.7806 7.14402 20.7806C7.14 20.7806 7.13397 20.7806 7.12995 20.7826C7.12794 20.7826 7.12593 20.7826 7.12392 20.7847C7.11789 20.7867 7.11387 20.7888 7.10985 20.7908H7.10784C7.10182 20.7929 7.0978 20.797 7.09177 20.8011C7.08976 20.8011 7.08976 20.8031 7.08775 20.8031C7.08373 20.8052 7.07971 20.8093 7.0777 20.8134L7.07569 20.8154L2.39139 26.1376L6.90689 18.06ZM9.8911 44.2666L2.25474 27.1081L5.39569 29.724L9.59971 43.3269L9.8911 44.2666ZM2.13215 26.7408L7.15608 21.0309L8.47837 22.3235L5.44392 29.4983L3.9488 28.2529L2.13215 26.7408ZM12.3106 22.4035L15.339 29.564H5.63684L8.66526 22.4035H12.3106ZM15.3551 29.7691L10.4879 45.514L5.62076 29.7691H15.3551ZM12.3367 22.1983H8.63914L7.40124 20.9878H13.5726L12.3367 22.1983ZM15.5782 29.7261L18.7191 27.1101L11.0828 44.2687L15.5782 29.7261ZM15.532 29.5004L12.4975 22.3255L13.8198 21.0329L18.8437 26.7429L16.8281 28.4232L15.532 29.5004ZM19.0628 26.8352L20.6664 26.2443L11.8504 43.0602L19.0628 26.8352ZM19.0768 26.6116L14.282 18.0313L16.3699 16.7756L20.7548 25.9919L19.0768 26.6116ZM16.3499 16.076L16.1107 15.1753C16.1007 15.1363 16.0685 15.1076 16.0303 15.1014L15.4777 15.0091L15.954 13.421L16.587 13.6837L16.3499 16.076ZM5.02191 13.419L5.49818 15.007L4.94555 15.0994C4.90737 15.1055 4.87521 15.1342 4.86517 15.1732L4.62402 16.076L4.38689 13.6837L5.02191 13.419ZM4.62201 16.7818L6.69387 18.0272L1.89703 26.6095L0.237129 25.996L4.62201 16.7818ZM1.91311 26.8352L9.07521 42.9432L0.311483 26.2422L1.91311 26.8352ZM16.5066 16.593C16.5046 16.591 16.5046 16.5869 16.5026 16.5848L16.7819 13.7801L20.1499 16.8864L18.3293 20.4236L16.5066 16.593ZM0.825933 16.8864L4.19598 13.7986L4.47531 16.6197L2.65665 20.4441L0.825933 16.8864Z" fill="#252683"/>
<path d="M53.6114 23.1747C53.6114 23.3015 53.5503 23.3629 53.4243 23.3629H45.3702C45.3702 24.4384 45.7633 25.364 46.5458 26.1361C47.3322 26.9081 48.2597 27.2922 49.3285 27.2922C50.989 27.2922 52.1723 26.5201 52.8861 24.9761L52.9395 24.8148L53.2602 24.9761L53.2067 25.1374C52.867 25.944 52.3555 26.5701 51.6684 27.0079C50.9814 27.4458 50.2027 27.6686 49.3285 27.6686C48.1338 27.6686 47.1108 27.2346 46.2634 26.3627C45.4198 25.4946 44.9961 24.4422 44.9961 23.2016C44.9961 22.0186 45.4236 21.0123 46.2825 20.1865C47.1375 19.3607 48.1567 18.9497 49.3324 18.9497C50.508 18.9497 51.5158 19.3645 52.3555 20.1865C53.1953 21.0123 53.6114 22.0071 53.6114 23.1747ZM53.2373 22.9865C53.2373 21.9725 52.8441 21.1083 52.0616 20.3939C51.2753 19.6795 50.3668 19.3261 49.3324 19.3261C48.2788 19.3261 47.3551 19.6833 46.5611 20.3939C45.7672 21.1083 45.3702 21.9725 45.3702 22.9865H53.2373Z" fill="#2F2F44" stroke="#2F2F44" stroke-width="0.2"/>
<path d="M61.0623 19.7301H59.776V27.2161H59.4019V19.7301H58.2529V19.3537H59.4019V16.5537H59.776V19.3537H61.0623V19.7301Z" fill="#2F2F44" stroke="#2F2F44" stroke-width="0.2"/>
<path d="M71.5366 27.2154H71.1625V21.9648C71.1625 21.2812 70.9068 20.6858 70.3991 20.175C69.8914 19.6641 69.2883 19.4068 68.5936 19.4068C67.8454 19.4068 67.2118 19.7218 66.6927 20.3478C66.5323 20.5437 66.3529 20.8587 66.1583 21.2888V27.2115H65.7842V14.9897H66.1583V20.4016C66.4598 20.0252 66.7652 19.7371 67.0667 19.5412C67.5133 19.2532 68.021 19.0842 68.5936 19.0304C69.3799 19.0304 70.067 19.3185 70.6548 19.8908C71.2427 20.4669 71.5366 21.1544 71.5366 21.9648V27.2154Z" fill="#2F2F44" stroke="#2F2F44" stroke-width="0.2"/>
<path d="M84.8466 23.1746C84.8466 23.3014 84.7856 23.3629 84.6596 23.3629H76.6054C76.6054 24.4383 76.9986 25.364 77.7811 26.136C78.5674 26.908 79.495 27.2921 80.5638 27.2921C82.2243 27.2921 83.4076 26.5201 84.1214 24.976L84.1748 24.8147L84.4955 24.976L84.442 25.1374C84.1023 25.9439 83.5908 26.57 82.9037 27.0079C82.2166 27.4457 81.4379 27.6685 80.5638 27.6685C79.369 27.6685 78.3461 27.2345 77.4986 26.3626C76.6512 25.4907 76.2275 24.4383 76.2275 23.1977C76.2275 22.0147 76.6551 21.0084 77.5139 20.1826C78.369 19.3568 79.3881 18.9458 80.5638 18.9458C81.7395 18.9458 82.7472 19.3606 83.587 20.1826C84.4268 21.0122 84.8466 22.007 84.8466 23.1746ZM84.4726 22.9864C84.4726 21.9724 84.0794 21.1082 83.2969 20.3938C82.5106 19.6794 81.6021 19.3261 80.5676 19.3261C79.5141 19.3261 78.5903 19.6833 77.7964 20.3938C77.0024 21.1082 76.6054 21.9724 76.6054 22.9864H84.4726Z" fill="#2F2F44" stroke="#2F2F44" stroke-width="0.2"/>
<path d="M92.4584 19.2992L92.2981 19.5949L92.111 19.5143C91.8438 19.4067 91.6301 19.353 91.4697 19.353C90.8819 19.353 90.4276 19.6602 90.1032 20.2671C90.0154 20.4476 89.9238 20.7626 89.836 21.2081V27.2115H89.4619V19.353H89.836V20.052C90.0154 19.7294 90.2101 19.4874 90.4238 19.3261C90.7254 19.0918 91.0766 18.9766 91.4659 18.9766C91.6072 18.9766 91.7598 19.0034 91.9202 19.0572C91.9545 19.0764 92.0728 19.1302 92.2675 19.2185L92.4584 19.2992Z" fill="#2F2F44" stroke="#2F2F44" stroke-width="0.2"/>
<path d="M104.536 26.3514C104.536 27.6074 104.109 28.6943 103.25 29.6085C102.391 30.5226 101.334 30.9835 100.066 30.9835C99.1577 30.9835 98.3447 30.7876 97.6309 30.392C96.7911 29.9234 96.2376 29.2782 95.9704 28.4524L95.917 28.291L96.2644 28.1297L96.3178 28.291C96.6728 29.0285 97.1881 29.5969 97.8637 30.0002C98.5394 30.4035 99.2761 30.6071 100.078 30.6071C101.25 30.6071 102.223 30.1884 102.998 29.355C103.773 28.5215 104.158 27.519 104.158 26.3514V25.4372C103.853 26.1363 103.368 26.7124 102.7 27.1618C102.032 27.6112 101.223 27.834 100.28 27.834C98.9249 27.834 97.8446 27.3769 97.043 26.4589C96.3102 25.6139 95.9475 24.6114 95.9475 23.4438C95.9475 22.2416 96.2949 21.2468 96.9896 20.4556C97.7759 19.5568 98.8524 19.1074 100.227 19.1074C101.173 19.1074 102.002 19.3417 102.715 19.8065C103.341 20.2213 103.822 20.7936 104.162 21.531V19.3494H104.536V26.3514ZM104.135 24.1467V22.7985C103.994 21.846 103.601 21.074 102.963 20.4825C102.253 19.818 101.345 19.4877 100.242 19.4877C98.9974 19.4877 98.0317 19.8794 97.3484 20.6591C96.6652 21.4389 96.3216 22.3684 96.3216 23.4476C96.3216 24.5269 96.6499 25.4411 97.3102 26.1939C98.0584 27.0389 99.0509 27.4576 100.295 27.4576C101.398 27.4576 102.295 27.1272 102.99 26.4628C103.612 25.8674 103.994 25.0954 104.135 24.1467Z" fill="#2F2F44" stroke="#2F2F44" stroke-width="0.2"/>
<path d="M113.59 18.7578C114.945 18.7578 116.018 19.1957 116.8 20.0714C117.514 20.878 117.869 21.8613 117.869 23.0251C117.869 24.2234 117.503 25.2374 116.773 26.0594C115.972 26.9735 114.873 27.4268 113.483 27.4268C112.128 27.4268 111.055 26.9889 110.273 26.1132C109.559 25.3066 109.204 24.3233 109.204 23.1595C109.204 21.9611 109.571 20.951 110.3 20.1252C111.105 19.2149 112.201 18.7578 113.59 18.7578ZM113.594 19.1381C112.338 19.1381 111.33 19.5606 110.574 20.3979C109.91 21.1507 109.578 22.0725 109.578 23.1633C109.578 24.2196 109.903 25.1145 110.548 25.8481C111.265 26.6547 112.246 27.0542 113.483 27.0542C114.739 27.0542 115.747 26.6355 116.502 25.7944C117.167 25.0415 117.499 24.1236 117.499 23.0289C117.499 21.9727 117.174 21.0777 116.529 20.3441C115.812 19.5375 114.831 19.1381 113.594 19.1381Z" fill="#2F2F44" stroke="#2F2F44" stroke-width="0.2"/>
<path d="M130.996 27.2154H130.622V25.5715C130.301 26.2551 129.813 26.8082 129.164 27.2423C128.511 27.6724 127.725 27.8875 126.797 27.8875C125.423 27.8875 124.327 27.4305 123.507 26.5125C122.774 25.6867 122.411 24.6727 122.411 23.4705C122.411 22.3028 122.758 21.3273 123.453 20.536C124.24 19.6373 125.316 19.1879 126.69 19.1879C127.652 19.1879 128.461 19.403 129.11 19.8331C129.763 20.2633 130.267 20.8471 130.622 21.5846V14.9897H130.996V27.2154ZM130.649 23.6856C130.649 22.2836 130.21 21.2159 129.332 20.4823C128.599 19.8715 127.713 19.5681 126.675 19.5681C125.438 19.5681 124.465 19.9714 123.747 20.778C123.102 21.5155 122.781 22.4219 122.781 23.4974C122.781 24.5728 123.113 25.4908 123.774 26.2436C124.526 27.0886 125.53 27.5073 126.782 27.5073C127.946 27.5073 128.881 27.1424 129.587 26.4165C130.294 25.6944 130.649 24.7841 130.649 23.6856Z" fill="#2F2F44" stroke="#2F2F44" stroke-width="0.2"/>
</svg>
